<?xml version="1.0" encoding="iso-8859-1"?>
<!-- Uploaded to: SVG Repo, www.svgrepo.com, Generator: SVG Repo Mixer Tools -->
<!DOCTYPE svg PUBLIC "-//W3C//DTD SVG 1.1//EN" "http://www.w3.org/Graphics/SVG/1.1/DTD/svg11.dtd">
<svg fill="#000000" height="800px" width="800px" version="1.1" id="Capa_1" xmlns="http://www.w3.org/2000/svg" xmlns:xlink="http://www.w3.org/1999/xlink" 
	 viewBox="0 0 296.999 296.999" xml:space="preserve">
<path d="M293.465,156.939c-5.57-17.401-17.734-37.254-35.178-57.412c-16.143-18.658-47.77-49.96-78.184-49.96
	c-9.494,0-17.834,3.052-24.791,9.072c-2.416,2.089-4.805,4.682-6.838,7.846c-4.66,0.69-8.547,2.416-11.787,5.22
	c-4.023,3.48-6.064,7.683-7.158,11.966c-3.752,1.456-7.26,3.558-10.484,6.347c-0.404,0.35-0.807,0.72-1.209,1.098
	c-5.549-0.376-11.285-0.587-17.232-0.587c-26.656,0-49.629,3.792-66.432,10.965C7.834,112.735,2.305,129.534,2.305,141.645
	c0,3.191,0.396,6.69,1.457,10.294C1.555,155.376,0,159.395,0,164.28c0,5.311,1.836,9.598,4.352,13.225
	c-1.508,4.237-2.047,8.377-2.047,12.098c0,12.113,5.6,28.648,32.275,38.64c16.164,6.054,38.379,9.123,66.023,9.123
	c27.646,0,49.859-3.069,66.023-9.123c3.311-1.24,6.285-2.583,8.971-4.004c18.107,15.407,34.391,23.194,48.631,23.194
	c8.861,0,16.754-2.941,23.457-8.742c2.82-2.441,5.605-5.566,7.826-9.492c5.121-0.58,9.354-2.325,12.832-5.334
	c3.693-3.196,5.715-7.001,6.869-10.918c3.098-1.407,6.018-3.281,8.738-5.636C293.109,199.384,302.195,184.212,293.465,156.939z
	 M100.604,110.086c2.281,0,4.512,0.041,6.717,0.101c-1.49,7.733-0.855,17.43,3.625,29.52c3.299,8.904,8.492,18.606,15.498,29.011
	c-7.855,0.739-16.477,1.131-25.84,1.131c-49.305,0-78.74-10.543-78.74-28.203C21.863,122.769,53.506,110.086,100.604,110.086z
	 M22.98,174.814c3.336,1.969,7.172,3.809,11.6,5.469c16.166,6.054,38.379,9.124,66.023,9.124c14.666,0,27.783-0.874,39.293-2.591
	c0.928,1.148,1.879,2.306,2.846,3.469c-0.229,0.035-0.453,0.066-0.684,0.106c-3.754,0.654-7.174,2.039-10.484,3.378
	c-3.451,1.397-6.713,2.716-9.734,2.927c-0.246,0.017-0.494,0.023-0.74,0.023c-2.316,0.001-5.133-0.666-8.117-1.371
	c-3.707-0.877-7.908-1.87-12.379-1.87c-4.469,0-8.672,0.994-12.379,1.871c-2.984,0.705-5.801,1.371-8.115,1.371
	c-0.248,0-0.494-0.008-0.738-0.023c-3.021-0.211-6.283-1.53-9.734-2.928c-3.311-1.339-6.734-2.724-10.49-3.378
	c-3.246-0.566-6.41-0.639-8.803-0.639c-0.941,0-1.877,0.013-2.805,0.025c-0.838,0.011-1.668,0.023-2.486,0.023
	c-2.256,0-4.787-0.084-6.467-0.709c-3.834-1.428-6.725-4.715-9.785-8.194c-1.244-1.413-2.529-2.876-3.9-4.226
	C24.27,176.051,23.625,175.433,22.98,174.814z M25.508,199.524c2.193,1.658,4.693,3.142,7.621,4.23
	c3.994,1.488,8.092,1.692,11.924,1.692c0.887,0,1.789-0.011,2.699-0.023c0.855-0.012,1.721-0.024,2.592-0.024
	c1.871,0,4.064,0.049,6.117,0.406c2.115,0.369,4.637,1.39,7.305,2.469c4.229,1.71,9.022,3.65,14.523,4.031
	c0.604,0.042,1.211,0.062,1.82,0.062c4.139,0,7.99-0.91,11.715-1.791c3.156-0.746,6.137-1.451,8.779-1.451
	c2.645,0,5.625,0.705,8.779,1.451c3.725,0.88,7.576,1.791,11.717,1.79c0.609,0,1.219-0.02,1.822-0.061
	c5.502-0.382,10.295-2.32,14.523-4.031c2.666-1.079,5.186-2.099,7.301-2.468c2.053-0.357,4.244-0.406,6.117-0.406
	c0.871,0,1.734,0.013,2.592,0.024c0.889,0.013,1.77,0.022,2.639,0.023c1.355,1.45,2.703,2.86,4.043,4.235
	c-13.541,5.251-33.824,8.125-59.533,8.125C61.4,217.807,34.777,211.134,25.508,199.524z M224.229,227.873
	c-14.742,0-37.41-16.426-62.191-45.064c-25.652-29.648-38.027-54.146-35.312-68.754c0.18,2.744,0.695,5.606,1.787,8.531
	c1.803,4.835,5.109,8.555,8.309,12.151c2.066,2.323,4.018,4.518,5.41,6.836c1.104,1.842,1.983,4.414,2.912,7.139
	c1.473,4.316,3.143,9.209,6.453,13.621c2.898,3.858,6.594,6.525,10.168,9.105c2.629,1.897,5.109,3.688,6.84,5.688
	c1.73,2.001,3.148,4.716,4.648,7.59c2.041,3.906,4.148,7.947,7.551,11.37c3.889,3.909,8.49,6.265,12.549,8.342
	c2.563,1.311,4.982,2.55,6.645,3.907c2.094,1.711,3.984,3.958,5.988,6.336c3.1,3.683,6.305,7.489,10.83,9.969
	c3.02,1.654,6.064,2.606,9.014,3.162C225.307,227.847,224.773,227.873,224.229,227.873z M242.678,213.141
	c-1.918-0.153-3.863-0.169-5.746-0.184c-4.635-0.037-9.012-0.073-12.6-2.039c-1.959-1.072-4.105-3.623-6.379-6.323
	c-2.266-2.691-4.834-5.741-8.059-8.375c-2.951-2.412-6.236-4.094-9.414-5.72c-3.316-1.697-6.447-3.3-8.582-5.445
	c-1.727-1.736-3.207-4.574-4.775-7.578c-1.764-3.378-3.762-7.206-6.686-10.587c-2.926-3.38-6.428-5.908-9.516-8.138
	c-2.748-1.983-5.344-3.856-6.813-5.813c-1.818-2.423-2.955-5.754-4.158-9.279c-1.152-3.378-2.346-6.872-4.307-10.141
	c-2.145-3.569-4.793-6.549-7.131-9.178c-2.346-2.638-4.561-5.129-5.342-7.222c-1.43-3.833-0.834-8.17-0.205-12.761
	c0.254-1.865,0.52-3.795,0.643-5.716c0.057-0.885,0.102-1.776,0.148-2.67c0.695,3.812,1.813,7.918,3.455,12.354
	c5.998,16.187,18.213,34.993,36.301,55.899c23.037,26.625,43.762,43.078,61.844,49.155
	C244.461,213.296,243.566,213.213,242.678,213.141z M271.154,192.519c-3.133,2.71-6.52,3.973-10.658,3.973
	c-14.744,0-37.412-16.425-62.191-45.064c-32.262-37.286-43.551-66.444-30.195-77.999c3.346-2.896,7.27-4.305,11.994-4.305
	c16.291,0,39.988,16.149,63.393,43.199c15.506,17.92,26.637,35.883,31.342,50.578C279.234,176.635,277.994,186.6,271.154,192.519z"
	/>
</svg>