<?xml version="1.0" encoding="iso-8859-1"?>
<!-- Uploaded to: SVG Repo, www.svgrepo.com, Generator: SVG Repo Mixer Tools -->
<svg height="800px" width="800px" version="1.1" id="Layer_1" xmlns="http://www.w3.org/2000/svg" xmlns:xlink="http://www.w3.org/1999/xlink" 
	 viewBox="0 0 503.467 503.467" xml:space="preserve">
<g transform="translate(5 9)">
	<path style="fill:#ECF4F7;" d="M443,302.467v119.467c0,18.773-15.36,34.133-34.133,34.133H84.6
		c-18.773,0-34.133-15.36-34.133-34.133V302.467v-102.4v-34.133H443v34.133V302.467z M443,165.933H50.467H33.4
		c0,0,51.2-68.267,213.333-68.267s213.333,68.267,213.333,68.267H443z"/>
	<path style="fill:#AAB1BA;" d="M246.733,29.4c14.507,0,25.6,11.093,25.6,25.6s-11.093,25.6-25.6,25.6
		c-14.507,0-25.6-11.093-25.6-25.6S232.227,29.4,246.733,29.4"/>
</g>
<title>Pot</title>
<path style="fill:#51565F;" d="M413.867,469.333H89.6c-21.333,0-38.4-17.067-38.4-38.4v-217.6H21.333c-6.827,0-12.8,5.973-12.8,12.8
	V294.4c0,6.827,5.973,12.8,12.8,12.8c2.56,0,4.267,1.707,4.267,4.267c0,2.56-1.707,4.267-4.267,4.267
	C9.387,315.733,0,306.347,0,294.4v-68.267C0,214.187,9.387,204.8,21.333,204.8h34.133c2.56,0,4.267,1.707,4.267,4.267v221.867
	c0,16.213,13.653,29.867,29.867,29.867h324.267c16.213,0,29.867-13.653,29.867-29.867V209.067c0-2.56,1.707-4.267,4.267-4.267
	h34.133c11.947,0,21.333,9.387,21.333,21.333V294.4c0,11.947-9.387,21.333-21.333,21.333c-2.56,0-4.267-1.707-4.267-4.267
	c0-2.56,1.707-4.267,4.267-4.267c6.827,0,12.8-5.973,12.8-12.8v-68.267c0-6.827-5.973-12.8-12.8-12.8h-29.867v217.6
	C452.267,452.267,435.2,469.333,413.867,469.333z M413.867,332.8c-2.56,0-4.267-1.707-4.267-4.267v-68.267
	c0-2.56,1.707-4.267,4.267-4.267s4.267,1.707,4.267,4.267v68.267C418.133,331.093,416.427,332.8,413.867,332.8z M413.867,230.4
	c-2.56,0-4.267-1.707-4.267-4.267v-17.067c0-2.56,1.707-4.267,4.267-4.267s4.267,1.707,4.267,4.267v17.067
	C418.133,228.693,416.427,230.4,413.867,230.4z M465.067,179.2H38.4c-1.707,0-3.413-0.853-3.413-2.56
	c-0.853-1.707-0.853-3.413,0-4.267c1.707-2.56,53.76-69.12,212.48-69.973v-8.533c-14.507-1.707-25.6-14.507-25.6-29.867
	c0-16.213,13.653-29.867,29.867-29.867S281.6,47.787,281.6,64c0,15.36-11.093,27.307-25.6,29.867v8.533
	c158.72,0.853,210.773,67.413,212.48,69.973c0.853,1.707,0.853,3.413,0,4.267C467.627,177.493,466.773,179.2,465.067,179.2z
	 M48.64,170.667h407.04c-17.92-17.067-76.8-59.733-203.093-59.733C124.587,110.933,66.56,153.6,48.64,170.667z M251.733,42.667
	c-11.947,0-21.333,9.387-21.333,21.333s9.387,21.333,21.333,21.333c11.947,0,21.333-9.387,21.333-21.333
	S263.68,42.667,251.733,42.667z"/>
</svg>