<?xml version="1.0" standalone="no"?>
<!DOCTYPE svg PUBLIC "-//W3C//DTD SVG 20010904//EN"
 "http://www.w3.org/TR/2001/REC-SVG-20010904/DTD/svg10.dtd">
<svg version="1.0" xmlns="http://www.w3.org/2000/svg"
 width="600.000000pt" height="600.000000pt" viewBox="0 0 600.000000 600.000000"
 preserveAspectRatio="xMidYMid meet">
<metadata>
Created by potrace 1.16, written by Peter Selinger 2001-2019
</metadata>
<g transform="translate(0.000000,600.000000) scale(0.100000,-0.100000)"
fill="#000000" stroke="none">
<path d="M3414 4662 c-53 -53 -90 -79 -159 -113 l-90 -44 -154 -3 c-96 -3
-149 -7 -140 -13 11 -7 9 -9 -8 -9 -29 0 -53 -10 -53 -22 0 -6 -12 -21 -27
-35 l-28 -24 22 -17 c13 -10 24 -34 28 -61 4 -24 14 -59 21 -77 8 -19 12 -34
9 -34 -4 0 10 -27 52 -103 7 -12 13 -32 13 -44 0 -19 5 -22 42 -20 33 2 43 -2
46 -15 5 -25 -46 -145 -74 -173 l-24 -24 -14 27 c-8 16 -30 37 -50 47 l-35 19
-37 -27 c-23 -16 -42 -23 -48 -18 -10 8 -87 26 -141 34 -16 2 -19 9 -17 38 4
43 -7 53 -78 68 -88 20 -85 16 -56 65 23 39 24 45 10 57 -28 23 -43 63 -32 83
25 44 -25 91 -72 66 -10 -5 -27 -10 -37 -10 -30 0 -132 -75 -238 -175 -24 -22
-70 -66 -104 -97 -75 -72 -165 -185 -150 -190 6 -2 -38 -16 -98 -32 -325 -83
-565 -283 -723 -601 -123 -249 -142 -482 -59 -740 57 -180 183 -384 327 -533
43 -43 63 -62 46 -43 -55 64 -83 106 -98 148 -8 22 -43 83 -79 134 -81 118
-149 253 -184 366 -24 79 -27 104 -27 248 -1 139 2 171 22 240 84 290 287 541
537 664 165 81 297 112 473 110 l117 -2 -95 -9 c-213 -20 -435 -109 -602 -241
-39 -31 -15 -25 26 7 112 85 241 148 386 187 72 20 109 24 245 24 147 0 167
-2 241 -27 126 -42 185 -45 280 -15 43 14 88 29 98 33 29 11 10 -14 -28 -37
-41 -25 -26 -24 24 1 22 11 40 18 40 15 0 -7 -30 -43 -62 -75 -48 -47 -194
-87 -368 -100 -311 -24 -365 -35 -510 -102 -79 -37 -196 -116 -235 -160 l-30
-33 35 31 c53 48 171 121 251 155 119 51 210 69 394 80 266 15 425 52 495 115
20 18 72 83 115 143 44 61 80 109 82 107 2 -1 -35 -59 -81 -129 -47 -69 -90
-143 -95 -164 -18 -65 -12 -150 24 -333 53 -269 68 -418 63 -603 -3 -87 -4
-156 -2 -155 1 2 7 56 13 120 17 182 -2 390 -62 678 -29 143 -28 229 5 300
l26 55 2 -40 2 -40 9 37 c5 21 25 61 45 90 20 29 46 66 57 81 34 49 29 22 -12
-62 -22 -46 -44 -111 -51 -149 -10 -59 -9 -75 8 -129 11 -34 41 -92 67 -129
124 -173 189 -446 164 -690 -11 -113 -6 -154 8 -57 24 169 -5 451 -57 553 -11
22 -18 40 -15 40 14 0 88 -179 111 -267 19 -74 24 -122 24 -214 0 -174 -29
-293 -112 -451 -160 -308 -448 -534 -756 -594 -156 -30 -355 -13 -501 43 -36
13 -92 29 -124 34 -55 8 -153 51 -210 91 -15 11 -27 17 -27 15 0 -3 24 -22 53
-43 74 -53 73 -51 51 -75 -27 -30 -23 -93 7 -125 54 -58 183 -109 354 -139
125 -23 514 -31 669 -15 155 15 321 57 419 105 76 37 157 104 157 130 0 18 73
52 135 64 47 9 83 14 280 41 167 23 340 65 440 107 190 80 194 84 188 155 l-4
51 88 -6 c85 -6 228 -34 493 -95 329 -77 465 -102 645 -117 62 -5 76 -3 115
18 27 15 44 31 44 40 -1 9 2 15 6 12 13 -8 32 60 24 89 -3 14 -12 30 -18 35
-7 6 -132 35 -277 65 -487 101 -996 221 -1014 239 -7 6 -2 8 15 5 14 -3 126
-26 250 -51 396 -81 634 -116 785 -117 57 0 82 5 133 30 65 31 82 53 74 97 -6
31 -29 39 -112 42 -194 6 -1026 149 -1017 175 5 14 34 14 282 -3 110 -8 279
-14 375 -15 169 -1 176 0 219 24 47 27 98 85 53 61 -12 -7 -20 -16 -17 -21 13
-20 -38 -27 -180 -24 -309 7 -415 15 -415 30 0 8 -6 17 -14 20 -18 7 -9 34 10
34 8 0 14 7 14 15 0 7 8 18 18 24 16 9 16 10 0 16 -37 15 -15 25 55 26 47 1 9
6 -113 16 -101 8 -185 15 -186 16 -2 1 6 34 17 72 59 213 65 462 14 645 -14
52 -29 97 -33 100 -4 3 -9 14 -10 25 -7 36 -33 79 -41 66 -6 -8 -14 -3 -27 16
-19 29 -21 33 -23 59 0 8 -5 13 -10 9 -5 -3 -12 4 -16 15 -3 11 -11 20 -16 20
-5 0 -9 7 -9 15 0 9 -7 27 -16 40 -9 14 -13 32 -10 41 6 15 4 15 -11 3 -15
-13 -16 -12 -11 8 4 16 2 20 -8 16 -8 -3 -14 1 -14 11 0 8 -10 25 -22 37 -13
12 -16 18 -8 14 10 -6 9 -1 -4 13 -10 12 -23 20 -30 19 -6 -1 -10 3 -9 10 4
19 -141 140 -263 219 -168 110 -195 148 -225 313 -23 132 -57 182 -135 197
-28 5 -37 0 -100 -64z m1333 -2244 c15 -7 34 -19 42 -26 11 -11 33 -12 94 -7
47 4 77 4 74 -2 -6 -9 -2 -10 73 -17 24 -2 46 -9 48 -15 2 -6 10 -11 18 -11 8
0 14 -4 14 -10 0 -5 8 -10 19 -10 11 0 23 -12 31 -30 13 -32 25 -35 103 -30
25 1 43 -4 50 -13 7 -9 23 -18 37 -21 42 -8 -248 4 -319 13 -36 5 -124 17
-196 27 -71 9 -134 21 -139 25 -6 5 -18 9 -28 9 -10 0 -18 5 -18 11 0 5 -4 7
-10 4 -6 -3 -7 1 -4 9 3 8 14 18 25 21 10 4 19 15 19 25 0 10 5 22 10 25 15
10 12 23 -7 28 -11 3 -8 5 9 6 15 0 40 -5 55 -11z"/>
<path d="M2774 3262 c28 -53 85 -238 106 -342 31 -151 30 -332 -3 -455 -13
-49 -28 -99 -32 -110 -5 -16 -5 -17 4 -5 15 22 48 125 60 194 23 125 8 363
-28 459 -6 15 -7 27 -4 27 4 0 2 5 -5 12 -7 7 -12 19 -12 28 0 28 -83 220 -96
220 -2 0 2 -13 10 -28z"/>
</g>
</svg>
