<?xml version="1.0" standalone="no"?>
<!DOCTYPE svg PUBLIC "-//W3C//DTD SVG 20010904//EN"
 "http://www.w3.org/TR/2001/REC-SVG-20010904/DTD/svg10.dtd">
<svg version="1.0" xmlns="http://www.w3.org/2000/svg"
 width="310.000000pt" height="522.000000pt" viewBox="0 0 310.000000 522.000000"
 preserveAspectRatio="xMidYMid meet">
<metadata>
Created by potrace 1.16, written by Peter Selinger 2001-2019
</metadata>
<g transform="translate(0.000000,522.000000) scale(0.100000,-0.100000)"
fill="#000000" stroke="none">
<path d="M1375 5203 c-274 -6 -594 -37 -718 -68 -95 -25 -175 -65 -187 -96 -7
-15 -12 -94 -12 -185 l0 -158 -44 -43 c-35 -34 -44 -49 -44 -77 0 -53 27 -101
73 -126 l40 -23 -7 -60 c-7 -72 -27 -101 -124 -184 -204 -175 -282 -275 -317
-410 -34 -127 -38 -2752 -6 -3098 16 -168 52 -247 160 -354 112 -111 245 -175
486 -236 245 -62 609 -92 980 -81 809 25 1260 198 1385 533 11 30 25 96 30
146 35 321 30 2956 -5 3090 -33 128 -104 224 -267 360 -141 119 -157 140 -171
230 -10 65 -10 71 8 81 40 23 94 78 110 112 22 46 7 92 -43 132 l-36 30 13 64
c9 46 10 76 3 104 -6 21 -13 62 -17 89 -9 66 -25 90 -86 121 -110 55 -364 89
-784 104 -143 5 -271 9 -285 8 -14 -1 -74 -3 -135 -5z m495 -62 c67 -4 -23 -7
-250 -8 -195 -2 -371 -7 -390 -11 -25 -6 -35 -13 -35 -27 0 -20 10 -20 430
-21 403 0 685 -13 724 -34 7 -4 -38 -13 -100 -21 -84 -10 -248 -14 -622 -14
l-507 0 0 -21 c0 -33 34 -36 450 -44 l375 -6 -330 -2 c-454 -3 -768 19 -970
67 -99 24 -111 35 -59 57 152 64 855 111 1284 85z m-1276 -183 c60 -23 240
-54 406 -68 208 -18 705 -24 940 -11 324 18 576 56 638 97 13 9 25 14 27 12 1
-2 6 -22 10 -46 7 -41 6 -43 -28 -57 -84 -35 -298 -59 -749 -84 -298 -17 -308
-18 -333 -41 -30 -28 -32 -49 -5 -78 22 -23 36 -25 230 -22 196 2 686 45 823
72 32 6 59 9 61 7 3 -2 7 -16 11 -31 6 -24 3 -29 -20 -38 -95 -36 -323 -70
-645 -96 -421 -34 -1084 3 -1374 76 -44 11 -80 21 -81 23 0 1 1 73 3 160 3
143 5 158 20 151 10 -3 39 -15 66 -26z m2046 -129 c0 -18 -64 -38 -181 -53
-258 -36 -883 -76 -900 -59 -7 7 38 13 133 17 443 21 805 58 894 90 48 18 54
19 54 5z m51 -258 c-16 -29 -71 -68 -121 -86 -121 -43 -376 -78 -700 -96 -267
-15 -858 -6 -1030 16 -247 31 -390 79 -390 131 0 20 29 17 102 -10 159 -60
383 -85 818 -93 636 -11 1112 38 1267 130 32 19 59 33 61 31 2 -1 -1 -11 -7
-23z m-121 -226 c15 -93 39 -127 185 -251 132 -113 192 -184 232 -271 24 -54
26 -73 34 -263 26 -717 18 -2703 -12 -2905 -32 -208 -191 -365 -470 -463 -241
-85 -604 -132 -1019 -132 -838 0 -1309 165 -1412 494 -36 114 -42 389 -41
1641 1 644 6 1260 11 1370 9 192 10 203 39 265 41 89 94 153 213 255 174 150
191 171 204 268 4 26 11 47 16 47 5 0 35 -7 67 -15 182 -49 508 -70 948 -61
459 8 730 30 915 75 41 9 76 17 77 16 1 0 7 -32 13 -70z"/>
<path d="M2638 4075 c-10 -22 -6 -30 55 -94 41 -44 79 -97 103 -146 38 -77 38
-78 44 -232 4 -138 7 -156 24 -169 25 -18 31 -18 52 3 15 15 16 35 11 167 -7
215 -37 292 -164 427 -72 76 -105 88 -125 44z"/>
<path d="M149 1549 c-12 -24 -5 -463 11 -719 13 -188 31 -246 115 -358 38 -51
52 -62 75 -62 19 0 33 7 40 20 12 23 11 27 -46 97 -88 108 -100 183 -110 683
-4 195 -11 340 -17 348 -15 19 -55 14 -68 -9z"/>
<path d="M2150 610 c-11 -20 1 -60 18 -60 31 0 215 -35 292 -56 93 -24 180
-65 180 -85 0 -28 -151 -84 -306 -113 -196 -36 -376 -50 -664 -50 -284 1 -419
9 -621 41 -125 19 -142 16 -137 -29 2 -26 9 -33 33 -40 187 -51 757 -76 1085
-48 350 30 586 91 661 171 36 38 39 93 8 133 -42 53 -187 107 -382 141 -115
21 -154 20 -167 -5z"/>
</g>
</svg>
