<?xml version="1.0" encoding="utf-8"?>
<!-- Generator: Adobe Illustrator 24.0.0, SVG Export Plug-In . SVG Version: 6.00 Build 0)  -->
<svg version="1.1" xmlns="http://www.w3.org/2000/svg" xmlns:xlink="http://www.w3.org/1999/xlink" x="0px" y="0px"
	 viewBox="0 0 1409.42 1775.23" style="enable-background:new 0 0 1409.42 1775.23;" xml:space="preserve">
<style type="text/css">
	.st0{fill:none;stroke:#000000;stroke-width:18;stroke-miterlimit:10;}
	.st1{fill:#FFFFFF;}
	.st2{fill:#3F3B3C;}
	.st3{fill:#231F20;}
</style>
<g id="Layer_1">
	<g>
		<path d="M597.13,1713.91c-20.84,14.8-47.91,20.05-76.27,24.85c-53.75,9.09-110.27,5.88-164.42,3.18
			c-36.94-1.84-83.15-1.05-115.91-21.12c-31.67-19.41-41.59-66.59-45.74-102c-15.51-132.1,0.13-274.09-3.67-414.58
			c-0.46-16.88-1.27-34.01,2.67-50.43c6.58-27.41,25.65-49.98,45.37-70.12c6.07-6.19,12.56-12.84,14.06-21.37
			c1.3-7.42-2.05-13.64-8.75-16.57c-11.99-5.24-3.46-15.73,5.43-18.85c7.19-2.52,15.09-1.07,22.58,0.31
			c98.33,18.05,199.87,18.46,298.34,1.2c7.03-1.23,21.14-2.29,25.34,5.58c3.47,6.51-4.38,5.4-8.28,9.71
			c-3.98,4.39-5.6,11.22-4.3,16.96c4.07,18.04,18.69,18.93,31.06,29.7c12.99,11.31,21.75,27.36,26.22,43.84
			c6.96,25.63,5.12,52.71,3.9,79.24c-5.26,114.86,0.35,229.87-5.72,344.76c-2.05,38.75,2.26,80.06-12.28,116.96
			C619.81,1692.8,609.58,1705.06,597.13,1713.91z"/>
		<path d="M407.43,956.99c-24.94,0.17-49.88-0.2-74.8-1.09c-11.73-0.42-86.77-11.15-88.87,0.9c-1.26,6.84,5.74,12.91,3.95,19.99
			c-0.82,3.25-3.57,5.91-3.76,9.26c-0.13,2.33,1.03,4.59,0.91,6.93c-0.18,3.51-3.18,6.32-3.73,9.8c-0.6,3.77,1.92,7.49,5.18,9.47
			c3.26,1.98,7.15,2.59,10.93,3.14c82.45,12.04,166.27,14.68,249.31,7.85c16.86-1.39,33.68-3.16,50.49-5.05
			c6.87-0.77,13.79-1.05,20.64-1.96c5.37-0.71,14.14-1.03,18.81-3.75c9.1-5.31-1.98-13.5-5.28-18.67c-0.7-1.09-1.42-2.25-1.51-3.55
			c-0.25-3.58,4.02-5.6,5.82-8.71c3.4-5.9-2.97-13.01-2.26-19.78c1.55-14.68-2.45-15.51-16.64-14.04
			c-15.11,1.57-30.24,2.92-45.39,4.09c-30.29,2.34-60.65,3.89-91.02,4.65C429.29,956.74,418.36,956.92,407.43,956.99z"/>
	</g>
	<g>
		<path class="st0" d="M1220.05,859.59c-20.84,14.8-47.91,20.05-76.27,24.85c-53.75,9.09-110.27,5.88-164.42,3.18
			c-36.94-1.84-83.15-1.05-115.91-21.12c-31.67-19.41-41.59-66.59-45.74-102c-15.51-132.1,0.13-274.09-3.67-414.58
			c-0.46-16.88-1.27-34.01,2.67-50.43c6.58-27.41,25.65-49.98,45.37-70.12c6.07-6.19,12.56-12.84,14.06-21.37
			c1.3-7.42-2.05-13.64-8.75-16.57c-11.99-5.24-3.46-15.73,5.43-18.85c7.19-2.52,15.09-1.07,22.58,0.31
			c98.33,18.05,199.87,18.46,298.34,1.2c7.03-1.23,21.14-2.29,25.34,5.58c3.47,6.51-4.38,5.4-8.28,9.71
			c-3.98,4.39-5.6,11.22-4.3,16.96c4.07,18.04,18.69,18.93,31.06,29.7c12.99,11.31,21.75,27.36,26.22,43.84
			c6.96,25.63,5.12,52.71,3.9,79.24c-5.26,114.86,0.35,229.87-5.72,344.76c-2.05,38.75,2.26,80.06-12.28,116.96
			C1242.73,838.48,1232.5,850.74,1220.05,859.59z"/>
		<path class="st0" d="M1030.35,102.67c-24.94,0.17-49.88-0.2-74.8-1.09c-11.73-0.42-86.77-11.15-88.87,0.9
			c-1.26,6.84,5.74,12.91,3.95,19.99c-0.82,3.25-3.57,5.91-3.76,9.26c-0.13,2.33,1.03,4.59,0.91,6.93c-0.18,3.51-3.18,6.32-3.73,9.8
			c-0.6,3.77,1.92,7.49,5.18,9.47c3.26,1.98,7.15,2.59,10.93,3.14c82.45,12.04,166.27,14.68,249.31,7.85
			c16.86-1.39,33.68-3.16,50.49-5.05c6.87-0.77,13.79-1.05,20.64-1.96c5.37-0.71,14.14-1.03,18.81-3.75
			c9.1-5.31-1.98-13.5-5.28-18.67c-0.7-1.1-1.42-2.25-1.51-3.55c-0.25-3.58,4.02-5.6,5.82-8.71c3.4-5.9-2.97-13.01-2.26-19.78
			c1.55-14.68-2.45-15.51-16.64-14.04c-15.11,1.57-30.24,2.92-45.39,4.09c-30.29,2.34-60.65,3.89-91.02,4.65
			C1052.21,102.42,1041.28,102.6,1030.35,102.67z"/>
	</g>
	<g>
		<path class="st0" d="M597.13,859.59c-20.84,14.8-47.91,20.05-76.27,24.85c-53.75,9.09-110.27,5.88-164.42,3.18
			c-36.94-1.84-83.15-1.05-115.91-21.12c-31.67-19.41-41.59-66.59-45.74-102c-15.51-132.1,0.13-274.09-3.67-414.58
			c-0.46-16.88-1.27-34.01,2.67-50.43c6.58-27.41,25.65-49.98,45.37-70.12c6.07-6.19,12.56-12.84,14.06-21.37
			c1.3-7.42-2.05-13.64-8.75-16.57c-11.99-5.24-3.46-15.73,5.43-18.85c7.19-2.52,15.09-1.07,22.58,0.31
			c98.33,18.05,199.87,18.46,298.34,1.2c7.03-1.23,21.14-2.29,25.34,5.58c3.47,6.51-4.38,5.4-8.28,9.71
			c-3.98,4.39-5.6,11.22-4.3,16.96c4.07,18.04,18.69,18.93,31.06,29.7c12.99,11.31,21.75,27.36,26.22,43.84
			c6.96,25.63,5.12,52.71,3.9,79.24C639.5,474,645.11,589,639.04,703.89c-2.05,38.75,2.26,80.06-12.28,116.96
			C619.81,838.48,609.58,850.74,597.13,859.59z"/>
		<path class="st0" d="M407.43,102.67c-24.94,0.17-49.88-0.2-74.8-1.09c-11.73-0.42-86.77-11.15-88.87,0.9
			c-1.26,6.84,5.74,12.91,3.95,19.99c-0.82,3.25-3.57,5.91-3.76,9.26c-0.13,2.33,1.03,4.59,0.91,6.93c-0.18,3.51-3.18,6.32-3.73,9.8
			c-0.6,3.77,1.92,7.49,5.18,9.47c3.26,1.98,7.15,2.59,10.93,3.14c82.45,12.04,166.27,14.68,249.31,7.85
			c16.86-1.39,33.68-3.16,50.49-5.05c6.87-0.77,13.79-1.05,20.64-1.96c5.37-0.71,14.14-1.03,18.81-3.75
			c9.1-5.31-1.98-13.5-5.28-18.67c-0.7-1.1-1.42-2.25-1.51-3.55c-0.25-3.58,4.02-5.6,5.82-8.71c3.4-5.9-2.97-13.01-2.26-19.78
			c1.55-14.68-2.45-15.51-16.64-14.04c-15.11,1.57-30.24,2.92-45.39,4.09c-30.29,2.34-60.65,3.89-91.02,4.65
			C429.29,102.42,418.36,102.6,407.43,102.67z"/>
	</g>
	<g>
		<path d="M1228.62,1713.91c-20.84,14.8-47.91,20.05-76.27,24.85c-53.75,9.09-110.27,5.88-164.42,3.18
			c-36.94-1.84-83.15-1.05-115.91-21.12c-31.67-19.41-41.59-66.59-45.74-102c-15.51-132.1,0.13-274.09-3.67-414.58
			c-0.46-16.88-1.27-34.01,2.67-50.43c6.58-27.41,25.65-49.98,45.37-70.12c6.07-6.19,12.56-12.84,14.06-21.37
			c1.3-7.42-2.05-13.64-8.75-16.57c-11.99-5.24-3.46-15.73,5.43-18.85c7.19-2.52,15.09-1.07,22.58,0.31
			c98.33,18.05,199.87,18.46,298.34,1.2c7.03-1.23,21.14-2.29,25.34,5.58c3.47,6.51-4.38,5.4-8.28,9.71
			c-3.98,4.39-5.6,11.22-4.3,16.96c4.07,18.04,18.69,18.93,31.06,29.7c12.99,11.31,21.75,27.36,26.22,43.84
			c6.96,25.63,5.12,52.71,3.9,79.24c-5.26,114.86,0.35,229.87-5.72,344.76c-2.05,38.75,2.26,80.06-12.28,116.96
			C1251.31,1692.8,1241.08,1705.06,1228.62,1713.91z"/>
		<path d="M1038.93,956.99c-24.94,0.17-49.88-0.2-74.8-1.09c-11.73-0.42-86.77-11.15-88.87,0.9c-1.26,6.84,5.74,12.91,3.95,19.99
			c-0.82,3.25-3.57,5.91-3.76,9.26c-0.13,2.33,1.03,4.59,0.91,6.93c-0.18,3.51-3.18,6.32-3.73,9.8c-0.6,3.77,1.92,7.49,5.18,9.47
			c3.26,1.98,7.15,2.59,10.93,3.14c82.45,12.04,166.27,14.68,249.31,7.85c16.86-1.39,33.68-3.16,50.49-5.05
			c6.87-0.77,13.79-1.05,20.64-1.96c5.37-0.71,14.14-1.03,18.81-3.75c9.1-5.31-1.98-13.5-5.28-18.67c-0.7-1.09-1.42-2.25-1.51-3.55
			c-0.25-3.58,4.02-5.6,5.82-8.71c3.4-5.9-2.97-13.01-2.26-19.78c1.55-14.68-2.45-15.51-16.64-14.04
			c-15.11,1.57-30.24,2.92-45.39,4.09c-30.29,2.34-60.65,3.89-91.02,4.65C1060.79,956.74,1049.86,956.92,1038.93,956.99z"/>
	</g>
</g>
<g id="Layer_2">
	<g>
		<g>
			<g>
				<path class="st1" d="M274.48,998.11c-1.33,0.13-3.07-6.91-2.97-15.74c0.08-8.83,1.97-15.83,3.29-15.67
					c1.36,0.15,1.67,7.17,1.6,15.72C276.3,990.98,275.84,997.99,274.48,998.11z"/>
			</g>
		</g>
	</g>
	<g>
		<g>
			<g>
				<path class="st1" d="M284.56,1002.48c-0.66,0.11-1.59-1.59-2.4-4.52c-0.81-2.92-1.46-7.06-1.55-11.67
					c-0.08-4.61,0.41-8.77,1.12-11.72c0.71-2.95,1.58-4.69,2.24-4.6c1.37,0.21,1.35,7.44,1.54,16.23
					C285.64,994.99,285.92,1002.22,284.56,1002.48z"/>
			</g>
		</g>
	</g>
	<g>
		<g>
			<g>
				<path class="st1" d="M297.96,1005.86c-1.3,0.24-3.57-6.2-3.81-14.49c-0.27-8.29,1.6-14.86,2.92-14.69
					c1.37,0.16,1.71,6.66,1.97,14.54C299.26,999.11,299.31,1005.62,297.96,1005.86z"/>
			</g>
		</g>
	</g>
	<g>
		<g>
			<g>
				<path class="st1" d="M313.55,1005.86c-0.64,0.17-1.69-1.27-2.66-3.86c-0.98-2.58-1.83-6.31-2.07-10.51
					c-0.24-4.19,0.18-8,0.85-10.67c0.67-2.68,1.54-4.24,2.2-4.14c1.37,0.23,1.35,6.71,1.83,14.53
					C314.12,999.03,314.88,1005.48,313.55,1005.86z"/>
			</g>
		</g>
	</g>
	<g>
		<g>
			<g>
				<path class="st1" d="M329.17,1004.78c-1.33,0.1-2.89-6.46-2.73-14.67c0.15-8.2,1.95-14.7,3.28-14.55
					c1.36,0.15,1.75,6.69,1.61,14.64C331.17,998.17,330.53,1004.69,329.17,1004.78z"/>
			</g>
		</g>
	</g>
	<g>
		<g>
			<g>
				
					<ellipse transform="matrix(0.9989 -0.0469 0.0469 0.9989 -46.1523 17.2868)" class="st1" cx="345.41" cy="992.44" rx="2.45" ry="15.72"/>
			</g>
		</g>
	</g>
	<g>
		<g>
			<g>
				<ellipse class="st1" cx="360.49" cy="994.69" rx="2.45" ry="15.71"/>
			</g>
		</g>
	</g>
	<g>
		<g>
			<g>
				<ellipse class="st1" cx="377.32" cy="993.01" rx="2.45" ry="15.15"/>
			</g>
		</g>
	</g>
	<g>
		<g>
			<g>
				
					<ellipse transform="matrix(0.9984 -0.0568 0.0568 0.9984 -55.9351 23.8803)" class="st1" cx="392.31" cy="996.35" rx="2.45" ry="15.19"/>
			</g>
		</g>
	</g>
	<g>
		<g>
			<g>
				
					<ellipse transform="matrix(0.9986 -0.0522 0.0522 0.9986 -51.2888 22.6836)" class="st1" cx="409.01" cy="994.11" rx="2.45" ry="14.07"/>
			</g>
		</g>
	</g>
	<g>
		<g>
			<g>
				<path class="st1" d="M429.98,1007.06c-0.64,0.17-1.69-1.28-2.65-3.88c-0.97-2.59-1.8-6.35-2-10.56
					c-0.2-4.21,0.28-8.03,0.99-10.7c0.72-2.68,1.62-4.22,2.27-4.11c1.36,0.26,1.22,6.75,1.62,14.59
					C430.55,1000.22,431.31,1006.67,429.98,1007.06z"/>
			</g>
		</g>
	</g>
	<g>
		<g>
			<g>
				<path class="st1" d="M444.8,1001.41c-1.35,0.09-2.82-5.37-3.29-12.2c-0.47-6.83,0.25-12.44,1.59-12.53
					c1.35-0.09,2.82,5.37,3.29,12.2S446.14,1001.32,444.8,1001.41z"/>
			</g>
		</g>
	</g>
	<g>
		<g>
			<g>
				<path class="st1" d="M465.55,1005.99c-1.33,0.23-3.69-6.9-5.27-15.94c-1.58-9.04-1.78-16.55-0.45-16.78
					c1.33-0.23,3.69,6.9,5.27,15.94S466.88,1005.75,465.55,1005.99z"/>
			</g>
		</g>
	</g>
	<g>
		<g>
			<g>
				
					<ellipse transform="matrix(0.9965 -0.084 0.084 0.9965 -81.5026 44.0658)" class="st1" cx="483.02" cy="990.79" rx="2.45" ry="16.36"/>
			</g>
		</g>
	</g>
	<g>
		<g>
			<g>
				<path class="st1" d="M501.2,1003.72c-1.35,0.1-2.89-5.87-3.45-13.33c-0.56-7.47,0.08-13.6,1.43-13.7
					c1.35-0.1,2.89,5.87,3.45,13.33C503.19,997.48,502.55,1003.62,501.2,1003.72z"/>
			</g>
		</g>
	</g>
	<g>
		<g>
			<g>
				<path class="st1" d="M516.44,1003.68c-1.27,0.37-4.29-6.39-5.23-15.34c-0.97-8.95,0.55-16.19,1.87-16.1
					c1.38,0.08,2.07,7.08,3,15.58C516.96,996.32,517.77,1003.31,516.44,1003.68z"/>
			</g>
		</g>
	</g>
	<g>
		<g>
			<g>
				<path class="st1" d="M531.81,1002.6c-1.32,0.22-3.5-6.46-4.02-14.99c-0.54-8.53,0.81-15.42,2.15-15.37
					c1.37,0.05,2.22,6.81,2.74,15.07C533.18,995.58,533.16,1002.39,531.81,1002.6z"/>
			</g>
		</g>
	</g>
	<g>
		<g>
			<g>
				
					<ellipse transform="matrix(0.9914 -0.1311 0.1311 0.9914 -124.6328 80.5477)" class="st1" cx="549.4" cy="986.79" rx="2.45" ry="14.76"/>
			</g>
		</g>
	</g>
	<g>
		<g>
			<g>
				<path class="st1" d="M569.25,1000.29c-0.61,0.25-1.92-1.25-3.27-4.07c-1.35-2.81-2.66-6.96-3.23-11.69
					c-0.56-4.73-0.26-9.07,0.39-12.12c0.65-3.06,1.57-4.82,2.22-4.73c1.38,0.23,1.17,7.53,2.26,16.27
					C568.62,992.7,570.54,999.74,569.25,1000.29z"/>
			</g>
		</g>
	</g>
	<g>
		<g>
			<g>
				<path class="st1" d="M581,998.1c-1.33,0.12-3.05-6.64-3.16-15.13c-0.13-8.49,1.38-15.3,2.72-15.21
					c1.36,0.08,2.05,6.86,2.18,15.14C582.85,991.19,582.36,997.98,581,998.1z"/>
			</g>
		</g>
	</g>
	<g>
		<g>
			<g>
				<path class="st1" d="M555.89,1061.3c0.05,0.16-0.87,0.57-2.67,1.21c-0.9,0.31-2.01,0.71-3.34,1.1c-1.34,0.37-2.89,0.8-4.63,1.28
					c-6.99,1.83-17.29,3.81-30.14,5.13c-12.85,1.34-28.23,1.9-45.23,2.05c-16.99,0.15-35.66,0.23-55.26,0.26
					c-39.2,0.04-74.69-0.19-100.38-0.61c-6.4-0.11-12.27-0.15-17.44-0.73c-2.58-0.29-4.98-0.7-7.16-1.21
					c-2.18-0.51-4.13-1.18-5.84-1.87c-3.42-1.42-5.8-3.12-7.2-4.44c-0.75-0.61-1.19-1.22-1.51-1.59c-0.31-0.39-0.44-0.61-0.38-0.67
					c0.14-0.14,0.94,0.47,2.49,1.48c1.54,1.03,3.94,2.36,7.27,3.44c3.32,1.08,7.56,1.86,12.57,2.14c5.01,0.3,10.77,0.11,17.21-0.01
					c25.69-0.47,61.18-0.78,100.38-0.83c19.6-0.02,38.28,0.03,55.25,0.13c16.96,0.1,32.2-0.1,44.95-0.98
					c12.75-0.87,22.99-2.31,30.04-3.55c3.52-0.64,6.26-1.14,8.12-1.47C554.84,1061.23,555.85,1061.14,555.89,1061.3z"/>
			</g>
		</g>
	</g>
	<g>
		<g>
			<g>
				<path class="st1" d="M595.18,1614.55c-0.02,0.05-0.15,0-0.35,0.02c-0.1,0-0.19,0.07-0.26,0.15c-0.06,0.11-0.09,0.27-0.09,0.47
					c0.02,0.37,0.27,0.97,0.7,1.01c0.19,0.02,0.52-0.08,0.78-0.27c0.26-0.18,0.48-0.46,0.63-0.83c0.33-0.74,0.37-1.68,0.36-2.82
					c0.02-1.13,0.03-2.37,0.05-3.71c0.06-2.68,0.12-5.78,0.19-9.26c0.33-13.94,0.96-34.1,1.83-59c1.75-49.81,4.48-118.62,7.78-194.6
					c0.83-19,1.65-37.51,1.57-55.37c-0.09-17.85-0.93-35.07-3.46-51.2c-2.5-16.12-6.74-31.14-12.87-44.22
					c-3.06-6.54-6.53-12.61-10.38-18.09c-3.85-5.46-8.09-10.31-12.45-14.63c-4.36-4.32-8.98-7.94-13.45-11.21
					c-1.15-0.76-2.29-1.52-3.41-2.26c-0.56-0.37-1.12-0.74-1.67-1.1c-0.57-0.33-1.14-0.66-1.7-0.99c-1.13-0.66-2.24-1.3-3.33-1.94
					c-1.11-0.6-2.23-1.14-3.32-1.7c-8.74-4.4-16.86-6.92-23.6-8.33c-0.84-0.19-1.66-0.37-2.46-0.54c-0.81-0.12-1.59-0.24-2.34-0.35
					c-1.51-0.21-2.93-0.47-4.25-0.62c-1.33-0.11-2.55-0.21-3.67-0.3c-1.12-0.08-2.14-0.23-3.05-0.21c-3.65-0.06-5.58-0.18-5.59-0.33
					s1.91-0.36,5.6-0.6c0.92-0.1,1.95-0.02,3.09-0.01c1.14,0.03,2.39,0.06,3.74,0.09c1.35,0.08,2.79,0.26,4.35,0.41
					c0.78,0.08,1.58,0.16,2.4,0.25c0.82,0.15,1.66,0.29,2.52,0.45c6.93,1.17,15.32,3.49,24.39,7.78c1.13,0.54,2.29,1.07,3.45,1.66
					c1.13,0.63,2.29,1.26,3.46,1.91c0.59,0.32,1.18,0.65,1.77,0.98c0.58,0.36,1.16,0.73,1.74,1.09c1.17,0.74,2.35,1.49,3.55,2.25
					c4.66,3.26,9.47,6.9,14.05,11.27c4.57,4.37,9.02,9.32,13.09,14.92c4.05,5.6,7.71,11.81,10.93,18.51
					c6.47,13.4,10.95,28.78,13.61,45.19c2.69,16.43,3.63,33.85,3.78,51.85c0.15,18.01-0.66,36.6-1.48,55.59
					c-3.3,75.98-6.55,144.77-9.13,194.54c-1.29,24.89-2.42,45.03-3.3,58.94c-0.23,3.48-0.44,6.57-0.61,9.24
					c-0.1,1.34-0.19,2.57-0.27,3.7c-0.07,1.1-0.18,2.27-0.68,3.19c-0.24,0.46-0.6,0.87-1.03,1.11c-0.43,0.23-0.86,0.36-1.36,0.26
					c-0.49-0.12-0.77-0.5-0.9-0.81c-0.13-0.32-0.16-0.63-0.14-0.9c0.03-0.27,0.13-0.52,0.29-0.69c0.18-0.16,0.41-0.21,0.54-0.16
					C595.12,1614.41,595.19,1614.53,595.18,1614.55z"/>
			</g>
		</g>
	</g>
	<g>
		<g>
			<g>
				<path class="st1" d="M312.14,1692.56c0,0.17-0.75,0.3-2.18,0.41c-0.72,0.05-1.61,0.09-2.66,0.13c-1.05-0.02-2.26-0.09-3.63-0.16
					c-1.37-0.03-2.88-0.27-4.53-0.49c-1.66-0.18-3.43-0.58-5.34-0.99c-0.48-0.1-0.96-0.21-1.46-0.31c-0.49-0.14-0.98-0.28-1.48-0.42
					c-1-0.29-2.04-0.59-3.1-0.9c-1.05-0.35-2.12-0.76-3.22-1.15c-0.55-0.2-1.11-0.4-1.67-0.61c-0.55-0.24-1.11-0.48-1.67-0.73
					c-4.55-1.9-9.32-4.53-14.07-7.89c-4.75-3.36-9.47-7.49-13.76-12.48c-4.28-4.97-8.14-10.84-11.11-17.31
					c-3.02-6.46-5.31-13.44-7.33-20.57c-4.01-14.26-7-28.05-9.17-40.69c-2.14-12.64-3.5-24.11-4.25-33.77
					c-0.75-9.66-1.01-17.49-0.97-22.91c0.03-5.42,0.28-8.41,0.6-8.42c0.75-0.03,1.44,11.9,3.81,30.97
					c1.18,9.54,2.89,20.85,5.24,33.32c2.39,12.46,5.49,26.08,9.44,40.16c1.99,7.02,4.17,13.75,6.98,19.9
					c2.77,6.17,6.27,11.64,10.21,16.41c3.94,4.76,8.3,8.78,12.71,12.11c4.41,3.33,8.85,6.01,13.11,8.02
					c0.53,0.26,1.05,0.52,1.57,0.78c0.53,0.22,1.05,0.44,1.57,0.66c1.04,0.43,2.04,0.88,3.03,1.27c1,0.35,1.98,0.7,2.93,1.03
					c0.47,0.17,0.94,0.33,1.4,0.5c0.47,0.13,0.93,0.26,1.38,0.39c1.81,0.52,3.49,1.04,5.07,1.34c1.58,0.35,3.02,0.72,4.34,0.9
					c1.32,0.23,2.49,0.43,3.5,0.6c1.02,0.12,1.89,0.23,2.59,0.34C311.39,1692.19,312.14,1692.39,312.14,1692.56z"/>
			</g>
		</g>
	</g>
	<g>
		<g>
			<g>
				<path class="st1" d="M604.95,1666.47c-0.12,0.13-1.13-0.52-2.92-1.87c-0.9-0.67-1.99-1.52-3.27-2.53
					c-1.26-1.03-2.85-2.06-4.56-3.32c-6.86-4.96-17.16-11.68-30.86-18.06c-0.85-0.41-1.71-0.82-2.59-1.23
					c-0.89-0.38-1.79-0.76-2.7-1.14c-1.82-0.77-3.68-1.55-5.58-2.36c-3.87-1.42-7.84-3.04-12.08-4.36
					c-4.19-1.47-8.63-2.68-13.17-3.99c-2.29-0.58-4.62-1.16-6.98-1.75c-2.35-0.62-4.78-1.05-7.22-1.6
					c-9.78-2.03-20.16-3.62-30.98-4.63c-10.82-1.02-22.1-1.43-33.65-1.31c-23.11,0.24-45.09,2.58-64.97,5.4
					c-19.88,2.87-37.7,6.23-52.66,9.08c-7.47,1.42-14.17,2.85-19.95,4.44c-5.79,1.57-10.64,3.33-14.5,5
					c-7.72,3.38-11.48,6.3-11.74,5.94c-0.1-0.13,0.73-0.99,2.49-2.42c1.79-1.39,4.56-3.31,8.39-5.32c3.83-2,8.71-4.09,14.54-5.95
					c5.82-1.89,12.58-3.58,20.03-5.24c14.9-3.31,32.71-7.06,52.7-10.2c19.98-3.1,42.18-5.61,65.62-5.86
					c11.72-0.12,23.16,0.33,34.18,1.44c11.01,1.1,21.57,2.82,31.5,5.02c2.47,0.59,4.94,1.07,7.33,1.73c2.39,0.64,4.76,1.27,7.08,1.9
					c4.61,1.42,9.1,2.73,13.34,4.32c4.29,1.44,8.31,3.18,12.21,4.73c1.91,0.87,3.79,1.72,5.62,2.55c0.92,0.42,1.82,0.83,2.72,1.24
					c0.88,0.45,1.74,0.89,2.6,1.33c13.76,6.93,23.94,14.24,30.5,19.75c1.63,1.4,3.14,2.57,4.31,3.73c1.19,1.15,2.19,2.13,2.98,2.93
					C604.31,1665.44,605.08,1666.34,604.95,1666.47z"/>
			</g>
		</g>
	</g>
	<g>
		<g>
			<g>
				<path class="st1" d="M618.61,1641.09c0.15,0.02,0.07,1.47-0.4,4.18c-0.55,2.69-1.6,6.66-3.82,11.44
					c-2.23,4.75-5.6,10.34-10.61,15.91c-4.94,5.63-11.5,11.22-19.53,16.15c-8.03,4.92-17.49,9.11-27.89,12.64
					c-10.4,3.56-21.7,6.51-33.52,9.66c-11.85,3.12-24.44,6.28-37.85,7.98c-13.44,1.71-27.4,1.57-41.52,1.28
					c-28.24-0.56-55.21-1.27-79.68-3.33c-24.47-2.02-46.43-5.31-64.55-9.5c-2.26-0.53-4.47-1.04-6.63-1.55
					c-2.14-0.56-4.22-1.12-6.25-1.65c-4.04-1.02-7.89-2.18-11.38-3.5c-6.99-2.63-12.69-5.94-16.63-9.55
					c-3.97-3.59-5.97-7.41-6.83-10.03c-0.2-0.67-0.43-1.24-0.51-1.76c-0.09-0.52-0.16-0.96-0.2-1.31c-0.09-0.7-0.1-1.07-0.01-1.08
					c0.08-0.02,0.25,0.32,0.5,0.97c0.12,0.33,0.27,0.73,0.43,1.21c0.15,0.48,0.46,1,0.72,1.61c1.12,2.4,3.24,5.79,7.16,8.96
					c3.9,3.18,9.45,6.11,16.3,8.41c3.43,1.16,7.16,2.15,11.23,3.06c2.02,0.47,4.1,0.96,6.23,1.46c2.15,0.44,4.35,0.9,6.6,1.37
					c18.05,3.72,39.84,6.63,64.17,8.39c24.33,1.8,51.2,2.38,79.43,2.94c14.1,0.3,27.81,0.46,40.83-1.14
					c13.04-1.58,25.47-4.6,37.3-7.58c11.85-3.03,23.12-5.81,33.37-9.15c10.26-3.3,19.52-7.19,27.4-11.77
					c7.85-4.57,14.33-9.77,19.28-15.03c5.03-5.2,8.5-10.43,10.92-14.91C617.46,1646.81,618.12,1640.97,618.61,1641.09z"/>
			</g>
		</g>
	</g>
	<g>
		<g>
			<g>
				<path class="st1" d="M307.85,1138.33c0,0.17-0.5,0.36-1.45,0.57c-0.48,0.11-1.06,0.22-1.76,0.33c-0.35,0.05-0.72,0.11-1.12,0.17
					c-0.4,0.07-0.82,0.17-1.26,0.26c-0.89,0.18-1.88,0.37-2.96,0.59c-1.07,0.25-2.22,0.57-3.47,0.88c-1.25,0.27-2.54,0.76-3.92,1.18
					c-1.39,0.39-2.8,1-4.3,1.56c-0.37,0.14-0.75,0.29-1.14,0.43c-0.37,0.17-0.75,0.34-1.13,0.52c-0.76,0.35-1.54,0.7-2.34,1.06
					c-0.81,0.34-1.57,0.81-2.38,1.21c-0.8,0.43-1.63,0.83-2.44,1.31c-1.6,0.99-3.31,1.92-4.94,3.1c-0.82,0.57-1.68,1.11-2.5,1.73
					c-0.82,0.63-1.64,1.26-2.48,1.91c-3.27,2.67-6.6,5.61-9.64,9.06c-3.06,3.42-5.95,7.2-8.53,11.32
					c-5.08,8.32-8.5,17.07-10.59,25.3c-1.1,4.11-1.75,8.1-2.34,11.85c-0.48,3.76-0.82,7.29-0.96,10.52
					c-0.3,6.47-0.13,11.75,0.05,15.4c0.17,3.65,0.23,5.71-0.13,5.77c-0.31,0.06-1-1.89-1.76-5.54c-0.77-3.64-1.48-9-1.62-15.68
					c-0.09-3.34,0.07-7.01,0.39-10.94c0.43-3.92,0.96-8.11,1.98-12.44c1.93-8.67,5.41-17.99,10.8-26.82
					c2.75-4.39,5.86-8.4,9.15-11.98c3.28-3.61,6.88-6.67,10.42-9.39c0.91-0.65,1.8-1.3,2.69-1.94c0.89-0.63,1.82-1.17,2.71-1.74
					c1.76-1.18,3.61-2.09,5.35-3.05c0.88-0.47,1.78-0.85,2.64-1.26c0.88-0.39,1.7-0.83,2.57-1.14c0.86-0.33,1.7-0.66,2.53-0.97
					c0.41-0.16,0.82-0.31,1.22-0.46c0.41-0.13,0.82-0.25,1.22-0.38c1.62-0.49,3.13-1.01,4.62-1.3c1.48-0.32,2.86-0.71,4.19-0.86
					c1.32-0.19,2.55-0.39,3.68-0.51c1.14-0.07,2.18-0.13,3.12-0.18c0.47-0.02,0.91-0.05,1.32-0.05c0.42,0.02,0.8,0.04,1.16,0.05
					c0.72,0.04,1.33,0.08,1.82,0.14C307.34,1138.02,307.85,1138.16,307.85,1138.33z"/>
			</g>
		</g>
	</g>
	<g>
		<g>
			<g>
				<path class="st2" d="M897.4,143.79c-1.5,0.12-3.01-1.54-4.15-4.4c-1.14-2.85-1.88-6.89-1.83-11.37
					c0.05-4.48,0.87-8.5,2.07-11.33c1.2-2.83,2.74-4.46,4.24-4.31c3.01,0.34,4.69,7.37,4.61,15.75
					C902.23,136.51,900.42,143.51,897.4,143.79z"/>
			</g>
		</g>
	</g>
	<g>
		<g>
			<g>
				<path class="st2" d="M907.48,148.16c-1.48,0.25-3.16-1.34-4.52-4.25c-1.36-2.91-2.36-7.14-2.45-11.88
					c-0.08-4.73,0.76-9,2.01-11.96c1.25-2.96,2.88-4.62,4.36-4.42c1.5,0.2,2.6,2.17,3.33,5.08c0.73,2.93,1.14,6.81,1.22,11.09
					c0.08,4.28-0.18,8.18-0.81,11.13C910,145.9,908.98,147.9,907.48,148.16z"/>
			</g>
		</g>
	</g>
	<g>
		<g>
			<g>
				<path class="st2" d="M920.88,151.54c-1.48,0.24-3.11-1.18-4.42-3.79c-1.31-2.59-2.27-6.38-2.4-10.61
					c-0.13-4.23,0.6-8.07,1.75-10.74c1.15-2.68,2.69-4.2,4.18-4.05c1.51,0.15,2.69,1.89,3.53,4.5c0.83,2.62,1.34,6.11,1.46,9.95
					c0.12,3.85-0.17,7.36-0.85,10.02C923.45,149.49,922.38,151.3,920.88,151.54z"/>
			</g>
		</g>
	</g>
	<g>
		<g>
			<g>
				<path class="st2" d="M936.47,151.54c-1.44,0.39-3.22-0.88-4.75-3.44c-1.53-2.54-2.74-6.39-2.99-10.75
					c-0.25-4.36,0.51-8.32,1.74-11.02c1.22-2.72,2.84-4.18,4.32-3.96c1.5,0.22,2.6,2.01,3.37,4.6c0.77,2.6,1.26,6.01,1.47,9.76
					c0.22,3.75,0.13,7.19-0.34,9.86C938.82,149.24,937.94,151.15,936.47,151.54z"/>
			</g>
		</g>
	</g>
	<g>
		<g>
			<g>
				<path class="st2" d="M952.09,150.46c-2.99,0.22-5.91-6.37-5.74-14.72c0.15-8.35,3.31-14.82,6.29-14.49
					c3.01,0.33,4.76,6.89,4.63,14.7C957.11,143.75,955.11,150.25,952.09,150.46z"/>
			</g>
		</g>
	</g>
	<g>
		<g>
			<g>
				
					<ellipse transform="matrix(0.9989 -0.0469 0.0469 0.9989 -5.411 45.554)" class="st2" cx="968.33" cy="138.12" rx="5.46" ry="15.72"/>
			</g>
		</g>
	</g>
	<g>
		<g>
			<g>
				<ellipse class="st2" cx="983.41" cy="140.37" rx="5.46" ry="15.71"/>
			</g>
		</g>
	</g>
	<g>
		<g>
			<g>
				<ellipse class="st2" cx="1000.24" cy="138.68" rx="5.46" ry="15.15"/>
			</g>
		</g>
	</g>
	<g>
		<g>
			<g>
				
					<ellipse transform="matrix(0.9984 -0.0568 0.0568 0.9984 -6.4262 57.8695)" class="st2" cx="1015.23" cy="142.03" rx="5.46" ry="15.19"/>
			</g>
		</g>
	</g>
	<g>
		<g>
			<g>
				
					<ellipse transform="matrix(0.9986 -0.0522 0.0522 0.9986 -5.8862 54.0078)" class="st2" cx="1031.93" cy="139.79" rx="5.46" ry="14.07"/>
			</g>
		</g>
	</g>
	<g>
		<g>
			<g>
				<path class="st2" d="M1052.9,152.74c-1.44,0.38-3.22-0.89-4.74-3.47c-1.52-2.56-2.71-6.44-2.92-10.83
					c-0.21-4.39,0.62-8.36,1.88-11.06c1.27-2.71,2.92-4.15,4.39-3.9c1.5,0.25,2.56,2.06,3.29,4.66c0.73,2.61,1.17,6.02,1.34,9.78
					c0.18,3.75,0.07,7.19-0.41,9.86C1055.25,150.44,1054.37,152.35,1052.9,152.74z"/>
			</g>
		</g>
	</g>
	<g>
		<g>
			<g>
				
					<ellipse transform="matrix(0.9977 -0.0684 0.0684 0.9977 -6.716 73.2755)" class="st2" cx="1066.87" cy="134.73" rx="5.46" ry="12.39"/>
			</g>
		</g>
	</g>
	<g>
		<g>
			<g>
				
					<ellipse transform="matrix(0.9851 -0.172 0.172 0.9851 -7.0934 188.7373)" class="st2" cx="1085.62" cy="135.3" rx="5.46" ry="16.61"/>
			</g>
		</g>
	</g>
	<g>
		<g>
			<g>
				
					<ellipse transform="matrix(0.9965 -0.084 0.084 0.9965 -7.554 93.3617)" class="st2" cx="1105.95" cy="136.47" rx="5.46" ry="16.36"/>
			</g>
		</g>
	</g>
	<g>
		<g>
			<g>
				
					<ellipse transform="matrix(0.9972 -0.0746 0.0746 0.9972 -7.0087 84.1973)" class="st2" cx="1123.11" cy="135.88" rx="5.46" ry="13.56"/>
			</g>
		</g>
	</g>
	<g>
		<g>
			<g>
				<path class="st2" d="M1139.36,149.36c-1.45,0.37-3.24-1.03-4.82-3.73c-1.58-2.7-2.91-6.71-3.4-11.28
					c-0.49-4.57-0.04-8.78,0.94-11.75c0.97-2.98,2.43-4.73,3.93-4.67c1.52,0.06,2.8,1.86,3.8,4.62c1,2.77,1.76,6.5,2.2,10.64
					c0.45,4.14,0.49,7.94,0.1,10.86C1141.7,146.95,1140.83,148.98,1139.36,149.36z"/>
			</g>
		</g>
	</g>
	<g>
		<g>
			<g>
				<path class="st2" d="M1154.73,148.28c-1.49,0.22-3.1-1.28-4.42-3.95c-1.32-2.67-2.33-6.52-2.6-10.85
					c-0.27-4.33,0.26-8.27,1.25-11.09c0.98-2.82,2.4-4.5,3.9-4.47c3.03,0.11,5.24,6.78,5.75,14.88
					C1159.09,140.9,1157.73,147.8,1154.73,148.28z"/>
			</g>
		</g>
	</g>
	<g>
		<g>
			<g>
				
					<ellipse transform="matrix(0.9914 -0.1311 0.1311 0.9914 -7.2477 154.8435)" class="st2" cx="1172.32" cy="132.46" rx="5.46" ry="14.76"/>
			</g>
		</g>
	</g>
	<g>
		<g>
			<g>
				<path class="st2" d="M1192.18,145.97c-1.38,0.56-3.4-0.68-5.3-3.44c-1.9-2.74-3.59-7.02-4.19-11.96
					c-0.59-4.95,0.05-9.51,1.25-12.61c1.2-3.13,2.87-4.81,4.34-4.59c1.51,0.22,2.56,2.21,3.36,5.08c0.8,2.89,1.39,6.66,1.89,10.82
					c0.5,4.16,0.81,7.97,0.72,10.96C1194.15,143.21,1193.59,145.4,1192.18,145.97z"/>
			</g>
		</g>
	</g>
	<g>
		<g>
			<g>
				<path class="st2" d="M1203.92,143.78c-2.99,0.28-6.06-6.46-6.18-15.08c-0.13-8.62,2.73-15.45,5.73-15.26
					c3.02,0.19,5.06,6.94,5.19,15.1C1208.78,136.69,1206.94,143.51,1203.92,143.78z"/>
			</g>
		</g>
	</g>
	<g>
		<g>
			<g>
				<path class="st2" d="M1178.81,206.98c0.1,0.36-0.76,0.97-2.51,1.79c-0.88,0.41-1.97,0.9-3.29,1.38c-1.32,0.48-2.85,1-4.59,1.56
					c-6.95,2.19-17.29,4.51-30.21,6.11c-12.92,1.62-28.38,2.4-45.4,2.7c-17,0.31-35.66,0.47-55.27,0.5
					c-39.2,0.04-74.69-0.53-100.38-1.49c-6.38-0.25-12.32-0.43-17.59-1.18c-2.63-0.37-5.08-0.88-7.31-1.49
					c-2.23-0.61-4.22-1.38-5.96-2.18c-3.48-1.64-5.84-3.56-7.16-5.06c-0.71-0.7-1.09-1.4-1.35-1.85c-0.25-0.47-0.3-0.76-0.17-0.9
					c0.28-0.29,1.22,0.17,2.86,1c1.63,0.84,4.04,1.96,7.31,2.82c3.27,0.87,7.39,1.44,12.3,1.57c4.91,0.13,10.6-0.21,17.06-0.46
					c25.69-1.02,61.18-1.67,100.38-1.71c19.6-0.02,38.28,0.12,55.25,0.36c16.94,0.25,32.09,0.28,44.77-0.33
					c12.68-0.59,22.89-1.69,29.97-2.57c1.77-0.23,3.34-0.42,4.72-0.56c1.37-0.15,2.53-0.3,3.49-0.35
					C1177.65,206.51,1178.71,206.62,1178.81,206.98z"/>
			</g>
		</g>
	</g>
	<g>
		<g>
			<g>
				<path class="st2" d="M1218.1,760.23c-0.04,0.09-0.21,0.1-0.36,0.18c-0.08,0.03-0.07,0.11-0.06,0.15
					c0.01,0.07,0.02,0.18,0.05,0.32c0.04,0.15,0.12,0.32,0.23,0.44c0.11,0.13,0.23,0.14,0.25,0.09c-0.02-0.03,0.25-0.12,0.39-0.27
					c0.15-0.14,0.26-0.34,0.36-0.64c0.1-0.29,0.15-0.67,0.17-1.09c0.01-0.21,0.01-0.44,0-0.67c-0.01-0.27-0.02-0.54-0.03-0.82
					c-0.03-1.13-0.06-2.38-0.1-3.72c-0.05-2.69-0.09-5.79-0.1-9.27c-0.05-13.95,0.24-34.13,0.83-59.05
					c1.18-49.84,3.56-118.66,6.86-194.64c0.83-19,1.67-37.46,1.63-55.21c-0.05-17.75-0.83-34.84-3.24-50.76
					c-2.39-15.92-6.46-30.69-12.37-43.55c-2.95-6.43-6.29-12.4-10-17.8c-3.71-5.37-7.79-10.15-12.01-14.43
					c-4.22-4.28-8.7-7.89-13.04-11.16c-1.12-0.77-2.23-1.52-3.32-2.27c-0.55-0.37-1.09-0.74-1.62-1.11c-0.56-0.34-1.11-0.67-1.66-1
					c-1.1-0.66-2.18-1.32-3.24-1.96c-1.08-0.61-2.17-1.15-3.23-1.72c-8.51-4.48-16.45-7.13-23.06-8.71
					c-0.83-0.21-1.63-0.41-2.41-0.61c-0.79-0.14-1.56-0.28-2.3-0.42c-1.49-0.26-2.88-0.56-4.18-0.76c-1.31-0.16-2.52-0.31-3.63-0.45
					c-1.11-0.13-2.12-0.33-3.02-0.36c-3.62-0.27-5.56-0.59-5.59-0.97s1.88-0.79,5.6-1.23c0.93-0.15,1.97-0.12,3.12-0.16
					c1.16-0.02,2.42-0.04,3.79-0.06c1.37,0.03,2.83,0.17,4.41,0.27c0.79,0.06,1.6,0.12,2.44,0.18c0.83,0.12,1.69,0.25,2.57,0.38
					c7.06,1,15.64,3.19,24.93,7.4c1.16,0.53,2.35,1.05,3.53,1.63c1.16,0.62,2.35,1.25,3.55,1.89c0.6,0.32,1.21,0.65,1.82,0.97
					c0.59,0.36,1.19,0.72,1.79,1.09c1.2,0.74,2.41,1.49,3.65,2.24c4.79,3.25,9.74,6.9,14.46,11.32c4.71,4.41,9.31,9.42,13.53,15.12
					c4.18,5.68,7.97,11.99,11.31,18.8c6.7,13.62,11.35,29.24,14.12,45.85c5.54,33.32,4.28,70.09,2.58,108.03
					c-3.3,75.98-6.9,144.75-10.06,194.5c-1.58,24.88-3.04,45-4.3,58.89c-0.31,3.47-0.62,6.56-0.9,9.23
					c-0.15,1.34-0.29,2.57-0.42,3.7c-0.04,0.29-0.07,0.57-0.1,0.84c-0.04,0.3-0.09,0.6-0.16,0.9c-0.14,0.59-0.33,1.16-0.64,1.7
					c-0.3,0.53-0.76,1.02-1.3,1.3c-0.27,0.15-0.55,0.24-0.81,0.28c-0.12,0.03-0.27,0.05-0.45,0.04c-0.16,0.01-0.33-0.01-0.49-0.06
					c-0.68-0.19-1.03-0.72-1.16-1.11c-0.14-0.41-0.15-0.77-0.1-1.09c0.06-0.32,0.2-0.62,0.43-0.83c0.26-0.21,0.58-0.24,0.73-0.16
					C1218.1,759.98,1218.13,760.16,1218.1,760.23z"/>
			</g>
		</g>
	</g>
	<g>
		<g>
			<g>
				<path class="st2" d="M935.06,838.24c0,0.38-0.75,0.72-2.2,1.01c-0.73,0.15-1.63,0.29-2.7,0.42c-1.07,0.07-2.31,0.09-3.71,0.11
					c-1.41,0.05-2.95-0.1-4.65-0.25c-1.71-0.1-3.53-0.43-5.51-0.77c-0.49-0.09-1-0.18-1.51-0.27c-0.5-0.12-1.01-0.25-1.53-0.38
					c-1.04-0.26-2.11-0.53-3.21-0.81c-1.09-0.32-2.19-0.71-3.34-1.08c-0.57-0.19-1.15-0.38-1.74-0.58c-0.57-0.23-1.15-0.47-1.74-0.7
					c-4.73-1.83-9.7-4.43-14.66-7.81c-4.96-3.38-9.9-7.59-14.41-12.71c-4.49-5.09-8.57-11.21-11.67-17.87
					c-3.15-6.65-5.51-13.78-7.55-20.99c-4.04-14.37-6.96-28.27-9-41.02c-2-12.75-3.16-24.32-3.64-34.05
					c-0.97-19.48,0.32-31.51,1.75-31.54c1.58-0.05,3.02,11.83,5.93,30.76c1.45,9.46,3.36,20.68,5.86,33.04
					c2.53,12.35,5.69,25.86,9.61,39.84c1.96,6.94,4.08,13.53,6.76,19.49c0.66,1.49,1.36,2.94,2.1,4.35
					c0.71,1.43,1.56,2.72,2.32,4.07c1.61,2.64,3.37,5.12,5.23,7.43c3.73,4.63,7.87,8.57,12.06,11.88c4.19,3.31,8.43,6.02,12.52,8.1
					c0.51,0.27,1.01,0.54,1.5,0.8c0.51,0.23,1.01,0.46,1.51,0.69c1,0.45,1.96,0.92,2.91,1.34c0.97,0.38,1.91,0.75,2.82,1.12
					c0.46,0.18,0.91,0.37,1.35,0.54c0.45,0.15,0.89,0.3,1.33,0.44c1.75,0.58,3.37,1.18,4.91,1.56c1.53,0.42,2.93,0.88,4.22,1.14
					c1.28,0.3,2.42,0.61,3.42,0.87c1,0.21,1.85,0.42,2.55,0.62C934.32,837.46,935.06,837.86,935.06,838.24z"/>
			</g>
		</g>
	</g>
	<g>
		<g>
			<g>
				<path class="st2" d="M1227.88,812.15c-0.26,0.28-1.39-0.23-3.31-1.43c-0.96-0.6-2.11-1.37-3.44-2.31
					c-1.31-0.96-2.95-1.91-4.69-3.09c-7.02-4.65-17.4-11.03-31.06-17.11c-0.85-0.39-1.71-0.78-2.58-1.17
					c-0.89-0.36-1.79-0.72-2.69-1.09c-1.81-0.73-3.66-1.48-5.55-2.25c-3.85-1.35-7.8-2.9-12.01-4.16c-4.16-1.4-8.56-2.55-13.07-3.81
					c-2.28-0.55-4.58-1.11-6.92-1.67c-2.33-0.59-4.74-1-7.16-1.53c-9.69-1.94-19.97-3.45-30.69-4.42
					c-10.71-0.97-21.9-1.35-33.36-1.24c-22.93,0.23-44.78,2.48-64.6,5.14c-19.82,2.71-37.65,5.85-52.64,8.44
					c-7.48,1.29-14.15,2.56-19.91,3.98c-5.76,1.4-10.59,2.98-14.48,4.47c-7.75,3.01-11.72,5.59-12.23,4.92
					c-0.43-0.5,2.75-4.34,10.39-8.76c3.81-2.18,8.71-4.46,14.57-6.49c5.85-2.06,12.63-3.9,20.08-5.69
					c14.87-3.57,32.67-7.53,52.72-10.84c20.04-3.26,42.36-5.87,65.99-6.11c11.81-0.12,23.35,0.35,34.48,1.51
					c11.12,1.15,21.77,2.94,31.79,5.23c2.5,0.61,4.98,1.12,7.39,1.8c2.41,0.67,4.8,1.33,7.14,1.98c4.65,1.48,9.17,2.85,13.44,4.5
					c4.32,1.5,8.36,3.31,12.28,4.93c1.92,0.91,3.8,1.79,5.65,2.66c0.92,0.44,1.83,0.87,2.73,1.3c0.88,0.47,1.75,0.93,2.61,1.39
					c13.79,7.24,23.9,14.88,30.3,20.7c1.59,1.48,3.05,2.72,4.17,3.96c1.14,1.22,2.08,2.28,2.81,3.15
					C1227.49,810.83,1228.13,811.88,1227.88,812.15z"/>
			</g>
		</g>
	</g>
	<g>
		<g>
			<g>
				<path class="st2" d="M1241.53,786.77c0.36,0.06,0.48,1.54,0.19,4.33c-0.36,2.77-1.25,6.86-3.36,11.81
					c-2.12,4.92-5.42,10.73-10.42,16.52c-2.47,2.92-5.34,5.85-8.64,8.68c-3.28,2.83-6.97,5.6-11.04,8.16
					c-8.12,5.14-17.71,9.51-28.18,13.18c-10.49,3.71-21.81,6.75-33.62,9.98c-11.86,3.2-24.54,6.45-38.18,8.22
					c-13.69,1.78-27.81,1.65-41.94,1.36c-28.24-0.56-55.27-1.35-79.84-3.58c-24.56-2.18-46.61-5.7-64.78-10.19
					c-2.27-0.57-4.48-1.12-6.64-1.66c-2.14-0.6-4.23-1.19-6.26-1.77c-4.03-1.1-7.95-2.35-11.47-3.77
					c-7.08-2.83-12.87-6.38-16.83-10.25c-4-3.85-5.93-7.93-6.63-10.7c-0.16-0.71-0.35-1.3-0.39-1.85c-0.05-0.55-0.07-1.01-0.07-1.37
					c0-0.74,0.1-1.12,0.29-1.15s0.46,0.28,0.8,0.89c0.17,0.31,0.36,0.69,0.57,1.15c0.2,0.46,0.54,0.95,0.84,1.52
					c1.28,2.26,3.47,5.39,7.37,8.3c3.87,2.92,9.33,5.61,16.1,7.71c3.4,1.06,7.05,1.96,11.13,2.79c2.02,0.44,4.09,0.89,6.22,1.35
					c2.14,0.41,4.34,0.83,6.59,1.26c18,3.43,39.69,6.1,63.93,7.7c24.24,1.64,51.04,2.14,79.28,2.69c14.09,0.3,27.64,0.47,40.41-1.06
					c12.81-1.51,25.14-4.43,36.97-7.34c11.87-2.96,23.11-5.64,33.28-8.83c10.18-3.16,19.32-6.87,27.1-11.23
					c3.88-2.16,7.41-4.5,10.6-6.91c3.2-2.4,6.04-4.91,8.53-7.42c5.04-4.97,8.58-9.99,11.11-14.29
					C1239.56,792.32,1240.63,786.59,1241.53,786.77z"/>
			</g>
		</g>
	</g>
	<g>
		<g>
			<g>
				<path class="st2" d="M930.77,284.01c0.01,0.38-0.49,0.77-1.43,1.18c-0.47,0.2-1.04,0.41-1.72,0.62c-0.34,0.1-0.7,0.2-1.09,0.31
					c-0.38,0.12-0.79,0.26-1.23,0.4c-0.86,0.27-1.82,0.56-2.86,0.84c-1.02,0.34-2.14,0.71-3.33,1.11c-1.2,0.34-2.43,0.9-3.75,1.38
					c-1.33,0.45-2.68,1.12-4.1,1.73c-0.36,0.15-0.72,0.31-1.08,0.47c-0.36,0.18-0.72,0.36-1.08,0.55c-0.73,0.36-1.47,0.74-2.22,1.12
					c-0.77,0.35-1.49,0.84-2.26,1.26c-0.76,0.45-1.55,0.85-2.32,1.34c-1.52,1.01-3.14,1.94-4.68,3.12
					c-0.78,0.57-1.59,1.11-2.37,1.73c-0.77,0.62-1.56,1.25-2.35,1.89c-3.1,2.63-6.27,5.51-9.15,8.85
					c-2.91,3.32-5.67,6.96-8.14,10.91c-4.88,8-8.28,16.41-10.45,24.37c-1.14,3.97-1.87,7.84-2.55,11.49
					c-0.57,3.66-1.04,7.1-1.31,10.27c-0.57,6.34-0.73,11.56-0.91,15.22c-0.19,3.66-0.53,5.78-1.29,5.91
					c-0.72,0.13-1.81-1.76-2.93-5.39c-1.13-3.63-2.18-9.04-2.59-15.86c-0.22-3.41-0.19-7.16,0.04-11.19
					c0.33-4.02,0.79-8.34,1.77-12.81c1.84-8.95,5.35-18.61,10.94-27.75c2.85-4.56,6.09-8.7,9.54-12.39c3.43-3.72,7.19-6.84,10.9-9.6
					c0.95-0.66,1.89-1.31,2.81-1.96c0.93-0.63,1.91-1.18,2.84-1.75c1.85-1.18,3.78-2.08,5.6-3.03c0.92-0.46,1.86-0.83,2.77-1.23
					c0.92-0.37,1.78-0.81,2.69-1.1c0.9-0.31,1.78-0.62,2.64-0.92c0.43-0.15,0.86-0.29,1.28-0.43c0.43-0.12,0.86-0.23,1.28-0.35
					c1.69-0.44,3.27-0.91,4.82-1.14c1.55-0.26,2.97-0.58,4.36-0.66c1.37-0.12,2.64-0.25,3.81-0.28c1.18,0,2.25,0.03,3.21,0.07
					c0.48,0.03,0.93,0.04,1.36,0.09c0.43,0.07,0.82,0.13,1.19,0.19c0.74,0.13,1.36,0.27,1.86,0.42
					C930.25,283.29,930.77,283.63,930.77,284.01z"/>
			</g>
		</g>
	</g>
	<g>
		<g>
			<g>
				<path class="st2" d="M274.48,143.79c-1.5,0.12-3.01-1.54-4.15-4.4c-1.14-2.85-1.88-6.89-1.83-11.37
					c0.05-4.48,0.87-8.5,2.07-11.33c1.2-2.83,2.74-4.46,4.24-4.31c3.01,0.34,4.69,7.37,4.61,15.75
					C279.31,136.51,277.5,143.51,274.48,143.79z"/>
			</g>
		</g>
	</g>
	<g>
		<g>
			<g>
				<path class="st2" d="M284.56,148.16c-1.48,0.25-3.16-1.34-4.52-4.25c-1.36-2.91-2.36-7.14-2.45-11.88
					c-0.08-4.73,0.76-9,2.01-11.96c1.25-2.96,2.88-4.62,4.36-4.42c1.5,0.2,2.6,2.17,3.33,5.08c0.73,2.93,1.14,6.81,1.22,11.09
					c0.08,4.28-0.18,8.18-0.81,11.13C287.08,145.9,286.06,147.9,284.56,148.16z"/>
			</g>
		</g>
	</g>
	<g>
		<g>
			<g>
				<path class="st2" d="M297.96,151.54c-1.48,0.24-3.11-1.18-4.42-3.79c-1.31-2.59-2.27-6.38-2.4-10.61
					c-0.13-4.23,0.6-8.07,1.75-10.74c1.15-2.68,2.69-4.2,4.18-4.05c1.51,0.15,2.69,1.89,3.53,4.5c0.83,2.62,1.34,6.11,1.46,9.95
					c0.12,3.85-0.17,7.36-0.85,10.02C300.53,149.49,299.46,151.3,297.96,151.54z"/>
			</g>
		</g>
	</g>
	<g>
		<g>
			<g>
				<path class="st2" d="M313.55,151.54c-1.44,0.39-3.22-0.88-4.75-3.44c-1.53-2.54-2.74-6.39-2.99-10.75
					c-0.25-4.36,0.51-8.32,1.74-11.02c1.22-2.72,2.84-4.18,4.32-3.96c1.5,0.22,2.6,2.01,3.37,4.6c0.77,2.6,1.26,6.01,1.47,9.76
					c0.22,3.75,0.13,7.19-0.34,9.86C315.9,149.24,315.02,151.15,313.55,151.54z"/>
			</g>
		</g>
	</g>
	<g>
		<g>
			<g>
				<path class="st2" d="M329.17,150.46c-2.99,0.22-5.91-6.37-5.74-14.72c0.15-8.35,3.31-14.82,6.29-14.49
					c3.01,0.33,4.76,6.89,4.63,14.7C334.19,143.75,332.19,150.25,329.17,150.46z"/>
			</g>
		</g>
	</g>
	<g>
		<g>
			<g>
				
					<ellipse transform="matrix(0.9989 -0.0469 0.0469 0.9989 -6.0961 16.3472)" class="st2" cx="345.41" cy="138.12" rx="5.46" ry="15.72"/>
			</g>
		</g>
	</g>
	<g>
		<g>
			<g>
				<ellipse class="st2" cx="360.49" cy="140.37" rx="5.46" ry="15.71"/>
			</g>
		</g>
	</g>
	<g>
		<g>
			<g>
				<ellipse class="st2" cx="377.32" cy="138.68" rx="5.46" ry="15.15"/>
			</g>
		</g>
	</g>
	<g>
		<g>
			<g>
				
					<ellipse transform="matrix(0.9984 -0.0568 0.0568 0.9984 -7.431 22.5026)" class="st2" cx="392.31" cy="142.03" rx="5.46" ry="15.19"/>
			</g>
		</g>
	</g>
	<g>
		<g>
			<g>
				
					<ellipse transform="matrix(0.9986 -0.0522 0.0522 0.9986 -6.7339 21.521)" class="st2" cx="409.01" cy="139.79" rx="5.46" ry="14.07"/>
			</g>
		</g>
	</g>
	<g>
		<g>
			<g>
				<path class="st2" d="M429.98,152.74c-1.44,0.38-3.22-0.89-4.74-3.47c-1.52-2.56-2.71-6.44-2.92-10.83
					c-0.21-4.39,0.62-8.36,1.88-11.06c1.27-2.71,2.92-4.15,4.39-3.9c1.5,0.25,2.56,2.06,3.29,4.66c0.73,2.61,1.17,6.02,1.34,9.78
					c0.18,3.75,0.07,7.19-0.41,9.86C432.33,150.44,431.45,152.35,429.98,152.74z"/>
			</g>
		</g>
	</g>
	<g>
		<g>
			<g>
				
					<ellipse transform="matrix(0.9977 -0.0684 0.0684 0.9977 -8.1743 30.6757)" class="st2" cx="443.95" cy="134.73" rx="5.46" ry="12.39"/>
			</g>
		</g>
	</g>
	<g>
		<g>
			<g>
				
					<ellipse transform="matrix(0.9851 -0.172 0.172 0.9851 -16.3764 81.5977)" class="st2" cx="462.7" cy="135.3" rx="5.46" ry="16.61"/>
			</g>
		</g>
	</g>
	<g>
		<g>
			<g>
				
					<ellipse transform="matrix(0.9965 -0.084 0.084 0.9965 -9.7546 41.0475)" class="st2" cx="483.02" cy="136.47" rx="5.46" ry="16.36"/>
			</g>
		</g>
	</g>
	<g>
		<g>
			<g>
				
					<ellipse transform="matrix(0.9972 -0.0746 0.0746 0.9972 -8.7459 37.7084)" class="st2" cx="500.19" cy="135.88" rx="5.46" ry="13.56"/>
			</g>
		</g>
	</g>
	<g>
		<g>
			<g>
				<path class="st2" d="M516.44,149.36c-1.45,0.37-3.24-1.03-4.82-3.73c-1.58-2.7-2.91-6.71-3.4-11.28
					c-0.49-4.57-0.04-8.78,0.94-11.75c0.97-2.98,2.43-4.73,3.93-4.67c1.52,0.06,2.8,1.86,3.8,4.62c1,2.77,1.76,6.5,2.2,10.64
					c0.45,4.14,0.49,7.94,0.1,10.86C518.78,146.95,517.91,148.98,516.44,149.36z"/>
			</g>
		</g>
	</g>
	<g>
		<g>
			<g>
				<path class="st2" d="M531.81,148.28c-1.49,0.22-3.1-1.28-4.42-3.95c-1.32-2.67-2.33-6.52-2.6-10.85
					c-0.27-4.33,0.26-8.27,1.25-11.09c0.98-2.82,2.4-4.5,3.9-4.47c3.03,0.11,5.24,6.78,5.75,14.88
					C536.17,140.9,534.8,147.8,531.81,148.28z"/>
			</g>
		</g>
	</g>
	<g>
		<g>
			<g>
				
					<ellipse transform="matrix(0.9914 -0.1311 0.1311 0.9914 -12.6247 73.1736)" class="st2" cx="549.4" cy="132.46" rx="5.46" ry="14.76"/>
			</g>
		</g>
	</g>
	<g>
		<g>
			<g>
				<path class="st2" d="M569.25,145.97c-1.38,0.56-3.4-0.68-5.3-3.44c-1.9-2.74-3.59-7.02-4.19-11.96
					c-0.59-4.95,0.05-9.51,1.25-12.61c1.2-3.13,2.87-4.81,4.34-4.59c1.51,0.22,2.56,2.21,3.36,5.08c0.8,2.89,1.39,6.66,1.89,10.82
					c0.5,4.16,0.81,7.97,0.72,10.96C571.22,143.21,570.67,145.4,569.25,145.97z"/>
			</g>
		</g>
	</g>
	<g>
		<g>
			<g>
				<path class="st2" d="M581,143.78c-2.99,0.28-6.06-6.46-6.18-15.08c-0.13-8.62,2.73-15.45,5.73-15.26
					c3.02,0.19,5.06,6.94,5.19,15.1C585.86,136.69,584.02,143.51,581,143.78z"/>
			</g>
		</g>
	</g>
	<g>
		<g>
			<g>
				<path class="st2" d="M555.89,206.98c0.1,0.36-0.76,0.97-2.51,1.79c-0.88,0.41-1.97,0.9-3.29,1.38c-1.32,0.48-2.85,1-4.59,1.56
					c-6.95,2.19-17.29,4.51-30.21,6.11c-12.92,1.62-28.38,2.4-45.4,2.7c-17,0.31-35.66,0.47-55.27,0.5
					c-39.2,0.04-74.69-0.53-100.38-1.49c-6.38-0.25-12.32-0.43-17.59-1.18c-2.63-0.37-5.08-0.88-7.31-1.49
					c-2.23-0.61-4.22-1.38-5.96-2.18c-3.48-1.64-5.84-3.56-7.16-5.06c-0.71-0.7-1.09-1.4-1.35-1.85c-0.25-0.47-0.3-0.76-0.17-0.9
					c0.28-0.29,1.22,0.17,2.86,1c1.63,0.84,4.04,1.96,7.31,2.82c3.27,0.87,7.39,1.44,12.3,1.57c4.91,0.13,10.6-0.21,17.06-0.46
					c25.69-1.02,61.18-1.67,100.38-1.71c19.6-0.02,38.28,0.12,55.25,0.36c16.94,0.25,32.09,0.28,44.77-0.33
					c12.68-0.59,22.89-1.69,29.97-2.57c1.77-0.23,3.34-0.42,4.72-0.56c1.37-0.15,2.53-0.3,3.49-0.35
					C554.73,206.51,555.79,206.62,555.89,206.98z"/>
			</g>
		</g>
	</g>
	<g>
		<g>
			<g>
				<path class="st2" d="M595.18,760.23c-0.04,0.09-0.21,0.1-0.36,0.18c-0.08,0.03-0.07,0.11-0.06,0.15
					c0.01,0.07,0.02,0.18,0.05,0.32c0.04,0.15,0.12,0.32,0.23,0.44c0.11,0.13,0.23,0.14,0.25,0.09c-0.02-0.03,0.25-0.12,0.39-0.27
					c0.15-0.14,0.26-0.34,0.36-0.64c0.1-0.29,0.15-0.67,0.17-1.09c0.01-0.21,0.01-0.44,0-0.67c-0.01-0.27-0.02-0.54-0.03-0.82
					c-0.03-1.13-0.06-2.38-0.1-3.72c-0.05-2.69-0.09-5.79-0.1-9.27c-0.05-13.95,0.24-34.13,0.83-59.05
					c1.18-49.84,3.56-118.66,6.86-194.64c0.83-19,1.67-37.46,1.63-55.21c-0.05-17.75-0.83-34.84-3.24-50.76
					c-2.39-15.92-6.46-30.69-12.37-43.55c-2.95-6.43-6.29-12.4-10-17.8c-3.71-5.37-7.79-10.15-12.01-14.43
					c-4.22-4.28-8.7-7.89-13.04-11.16c-1.12-0.77-2.23-1.52-3.32-2.27c-0.55-0.37-1.09-0.74-1.62-1.11c-0.56-0.34-1.11-0.67-1.66-1
					c-1.1-0.66-2.18-1.32-3.24-1.96c-1.08-0.61-2.17-1.15-3.23-1.72c-8.51-4.48-16.45-7.13-23.06-8.71
					c-0.83-0.21-1.63-0.41-2.41-0.61c-0.79-0.14-1.56-0.28-2.3-0.42c-1.49-0.26-2.88-0.56-4.18-0.76c-1.31-0.16-2.52-0.31-3.63-0.45
					c-1.11-0.13-2.12-0.33-3.02-0.36c-3.62-0.27-5.56-0.59-5.59-0.97c-0.02-0.38,1.88-0.79,5.6-1.23c0.93-0.15,1.97-0.12,3.12-0.16
					c1.16-0.02,2.42-0.04,3.79-0.06c1.37,0.03,2.83,0.17,4.41,0.27c0.79,0.06,1.6,0.12,2.44,0.18c0.83,0.12,1.69,0.25,2.57,0.38
					c7.06,1,15.64,3.19,24.93,7.4c1.16,0.53,2.35,1.05,3.53,1.63c1.16,0.62,2.35,1.25,3.55,1.89c0.6,0.32,1.21,0.65,1.82,0.97
					c0.59,0.36,1.19,0.72,1.79,1.09c1.2,0.74,2.41,1.49,3.65,2.24c4.79,3.25,9.74,6.9,14.46,11.32c4.71,4.41,9.31,9.42,13.53,15.12
					c4.18,5.68,7.97,11.99,11.31,18.8c6.7,13.62,11.35,29.24,14.12,45.85c5.54,33.32,4.28,70.09,2.58,108.03
					c-3.3,75.98-6.9,144.75-10.06,194.5c-1.58,24.88-3.04,45-4.3,58.89c-0.31,3.47-0.62,6.56-0.9,9.23
					c-0.15,1.34-0.29,2.57-0.42,3.7c-0.04,0.29-0.07,0.57-0.1,0.84c-0.04,0.3-0.09,0.6-0.16,0.9c-0.14,0.59-0.33,1.16-0.64,1.7
					c-0.3,0.53-0.76,1.02-1.3,1.3c-0.27,0.15-0.55,0.24-0.81,0.28c-0.12,0.03-0.27,0.05-0.45,0.04c-0.16,0.01-0.33-0.01-0.49-0.06
					c-0.68-0.19-1.03-0.72-1.16-1.11c-0.14-0.41-0.15-0.77-0.1-1.09c0.06-0.32,0.2-0.62,0.43-0.83c0.26-0.21,0.58-0.24,0.73-0.16
					C595.18,759.98,595.21,760.16,595.18,760.23z"/>
			</g>
		</g>
	</g>
	<g>
		<g>
			<g>
				<path class="st2" d="M312.14,838.24c0,0.38-0.75,0.72-2.2,1.01c-0.73,0.15-1.63,0.29-2.7,0.42c-1.07,0.07-2.31,0.09-3.71,0.11
					c-1.41,0.05-2.95-0.1-4.65-0.25c-1.71-0.1-3.53-0.43-5.51-0.77c-0.49-0.09-1-0.18-1.51-0.27c-0.5-0.12-1.01-0.25-1.53-0.38
					c-1.04-0.26-2.11-0.53-3.21-0.81c-1.09-0.32-2.19-0.71-3.34-1.08c-0.57-0.19-1.15-0.38-1.74-0.58c-0.57-0.23-1.15-0.47-1.74-0.7
					c-4.73-1.83-9.7-4.43-14.66-7.81c-4.96-3.38-9.9-7.59-14.41-12.71c-4.49-5.09-8.57-11.21-11.67-17.87
					c-3.15-6.65-5.51-13.78-7.55-20.99c-4.04-14.37-6.96-28.27-9-41.02c-2-12.75-3.16-24.32-3.64-34.05
					c-0.97-19.48,0.32-31.51,1.75-31.54c1.58-0.05,3.02,11.83,5.93,30.76c1.45,9.46,3.36,20.68,5.86,33.04
					c2.53,12.35,5.69,25.86,9.61,39.84c1.96,6.94,4.08,13.53,6.76,19.49c0.66,1.49,1.36,2.94,2.1,4.35
					c0.71,1.43,1.56,2.72,2.32,4.07c1.61,2.64,3.37,5.12,5.23,7.43c3.73,4.63,7.87,8.57,12.06,11.88c4.19,3.31,8.43,6.02,12.52,8.1
					c0.51,0.27,1.01,0.54,1.5,0.8c0.51,0.23,1.01,0.46,1.51,0.69c1,0.45,1.96,0.92,2.91,1.34c0.97,0.38,1.91,0.75,2.82,1.12
					c0.46,0.18,0.91,0.37,1.35,0.54c0.45,0.15,0.89,0.3,1.33,0.44c1.75,0.58,3.37,1.18,4.91,1.56c1.53,0.42,2.93,0.88,4.22,1.14
					c1.28,0.3,2.42,0.61,3.42,0.87c1,0.21,1.85,0.42,2.55,0.62C311.39,837.46,312.14,837.86,312.14,838.24z"/>
			</g>
		</g>
	</g>
	<g>
		<g>
			<g>
				<path class="st2" d="M604.95,812.15c-0.26,0.28-1.39-0.23-3.31-1.43c-0.96-0.6-2.11-1.37-3.44-2.31
					c-1.31-0.96-2.95-1.91-4.69-3.09c-7.02-4.65-17.4-11.03-31.06-17.11c-0.85-0.39-1.71-0.78-2.58-1.17
					c-0.89-0.36-1.79-0.72-2.69-1.09c-1.81-0.73-3.66-1.48-5.55-2.25c-3.85-1.35-7.8-2.9-12.01-4.16c-4.16-1.4-8.56-2.55-13.07-3.81
					c-2.28-0.55-4.58-1.11-6.92-1.67c-2.33-0.59-4.74-1-7.16-1.53c-9.69-1.94-19.97-3.45-30.69-4.42
					c-10.71-0.97-21.9-1.35-33.36-1.24c-22.93,0.23-44.78,2.48-64.6,5.14c-19.82,2.71-37.65,5.85-52.64,8.44
					c-7.48,1.29-14.15,2.56-19.91,3.98c-5.76,1.4-10.59,2.98-14.48,4.47c-7.75,3.01-11.72,5.59-12.23,4.92
					c-0.43-0.5,2.75-4.34,10.39-8.76c3.81-2.18,8.71-4.46,14.57-6.49c5.85-2.06,12.63-3.9,20.08-5.69
					c14.87-3.57,32.67-7.53,52.72-10.84c20.04-3.26,42.36-5.87,65.99-6.11c11.81-0.12,23.35,0.35,34.48,1.51
					c11.12,1.15,21.77,2.94,31.79,5.23c2.5,0.61,4.98,1.12,7.39,1.8c2.41,0.67,4.8,1.33,7.14,1.98c4.65,1.48,9.17,2.85,13.44,4.5
					c4.32,1.5,8.36,3.31,12.28,4.93c1.92,0.91,3.8,1.79,5.65,2.66c0.92,0.44,1.83,0.87,2.73,1.3c0.88,0.47,1.75,0.93,2.61,1.39
					c13.79,7.24,23.9,14.88,30.3,20.7c1.59,1.48,3.05,2.72,4.17,3.96c1.14,1.22,2.08,2.28,2.81,3.15
					C604.57,810.83,605.21,811.88,604.95,812.15z"/>
			</g>
		</g>
	</g>
	<g>
		<g>
			<g>
				<path class="st2" d="M618.61,786.77c0.36,0.06,0.48,1.54,0.19,4.33c-0.36,2.77-1.25,6.86-3.36,11.81
					c-2.12,4.92-5.42,10.73-10.42,16.52c-2.47,2.92-5.34,5.85-8.64,8.68c-3.28,2.83-6.97,5.6-11.04,8.16
					c-8.12,5.14-17.71,9.51-28.18,13.18c-10.49,3.71-21.81,6.75-33.62,9.98c-11.86,3.2-24.54,6.45-38.18,8.22
					c-13.69,1.78-27.81,1.65-41.94,1.36c-28.24-0.56-55.27-1.35-79.84-3.58c-24.56-2.18-46.61-5.7-64.78-10.19
					c-2.27-0.57-4.48-1.12-6.64-1.66c-2.14-0.6-4.23-1.19-6.26-1.77c-4.03-1.1-7.95-2.35-11.47-3.77
					c-7.08-2.83-12.87-6.38-16.83-10.25c-4-3.85-5.93-7.93-6.63-10.7c-0.16-0.71-0.35-1.3-0.39-1.85c-0.05-0.55-0.07-1.01-0.07-1.37
					c0-0.74,0.1-1.12,0.29-1.15c0.19-0.03,0.46,0.28,0.8,0.89c0.17,0.31,0.36,0.69,0.57,1.15c0.2,0.46,0.54,0.95,0.84,1.52
					c1.28,2.26,3.47,5.39,7.37,8.3c3.87,2.92,9.33,5.61,16.1,7.71c3.4,1.06,7.05,1.96,11.13,2.79c2.02,0.44,4.09,0.89,6.22,1.35
					c2.14,0.41,4.34,0.83,6.59,1.26c18,3.43,39.69,6.1,63.93,7.7c24.24,1.64,51.04,2.14,79.28,2.69c14.09,0.3,27.64,0.47,40.41-1.06
					c12.81-1.51,25.14-4.43,36.97-7.34c11.87-2.96,23.11-5.64,33.28-8.83c10.18-3.16,19.32-6.87,27.1-11.23
					c3.88-2.16,7.41-4.5,10.6-6.91c3.2-2.4,6.04-4.91,8.53-7.42c5.04-4.97,8.58-9.99,11.11-14.29
					C616.64,792.32,617.71,786.59,618.61,786.77z"/>
			</g>
		</g>
	</g>
	<g>
		<g>
			<g>
				<path class="st2" d="M307.85,284.01c0.01,0.38-0.49,0.77-1.43,1.18c-0.47,0.2-1.04,0.41-1.72,0.62c-0.34,0.1-0.7,0.2-1.09,0.31
					c-0.38,0.12-0.79,0.26-1.23,0.4c-0.86,0.27-1.82,0.56-2.86,0.84c-1.02,0.34-2.14,0.71-3.33,1.11c-1.2,0.34-2.43,0.9-3.75,1.38
					c-1.33,0.45-2.68,1.12-4.1,1.73c-0.36,0.15-0.72,0.31-1.08,0.47c-0.36,0.18-0.72,0.36-1.08,0.55c-0.73,0.36-1.47,0.74-2.22,1.12
					c-0.77,0.35-1.49,0.84-2.26,1.26c-0.76,0.45-1.55,0.85-2.32,1.34c-1.52,1.01-3.14,1.94-4.68,3.12
					c-0.78,0.57-1.59,1.11-2.37,1.73c-0.77,0.62-1.56,1.25-2.35,1.89c-3.1,2.63-6.27,5.51-9.15,8.85
					c-2.91,3.32-5.67,6.96-8.14,10.91c-4.88,8-8.28,16.41-10.45,24.37c-1.14,3.97-1.87,7.84-2.55,11.49
					c-0.57,3.66-1.04,7.1-1.31,10.27c-0.57,6.34-0.73,11.56-0.91,15.22c-0.19,3.66-0.53,5.78-1.29,5.91
					c-0.72,0.13-1.81-1.76-2.93-5.39c-1.13-3.63-2.18-9.04-2.59-15.86c-0.22-3.41-0.19-7.16,0.04-11.19
					c0.33-4.02,0.79-8.34,1.77-12.81c1.84-8.95,5.35-18.61,10.94-27.75c2.85-4.56,6.09-8.7,9.54-12.39c3.43-3.72,7.19-6.84,10.9-9.6
					c0.95-0.66,1.89-1.31,2.81-1.96c0.93-0.63,1.91-1.18,2.84-1.75c1.85-1.18,3.78-2.08,5.6-3.03c0.92-0.46,1.86-0.83,2.77-1.23
					c0.92-0.37,1.78-0.81,2.69-1.1c0.9-0.31,1.78-0.62,2.64-0.92c0.43-0.15,0.86-0.29,1.28-0.43c0.43-0.12,0.86-0.23,1.28-0.35
					c1.69-0.44,3.27-0.91,4.82-1.14c1.55-0.26,2.97-0.58,4.36-0.66c1.37-0.12,2.64-0.25,3.81-0.28c1.18,0,2.25,0.03,3.21,0.07
					c0.48,0.03,0.93,0.04,1.36,0.09c0.43,0.07,0.82,0.13,1.19,0.19c0.74,0.13,1.36,0.27,1.86,0.42
					C307.33,283.29,307.85,283.63,307.85,284.01z"/>
			</g>
		</g>
	</g>
	<g>
		<g>
			<g>
				<path class="st1" d="M905.97,998.11c-1.33,0.13-3.07-6.91-2.97-15.74c0.08-8.83,1.97-15.83,3.29-15.67
					c1.36,0.15,1.67,7.17,1.6,15.72C907.8,990.98,907.34,997.99,905.97,998.11z"/>
			</g>
		</g>
	</g>
	<g>
		<g>
			<g>
				<path class="st1" d="M916.06,1002.48c-0.66,0.11-1.59-1.59-2.4-4.52c-0.81-2.92-1.46-7.06-1.55-11.67
					c-0.08-4.61,0.41-8.77,1.12-11.72c0.71-2.95,1.58-4.69,2.24-4.6c1.37,0.21,1.35,7.44,1.54,16.23
					C917.14,994.99,917.42,1002.22,916.06,1002.48z"/>
			</g>
		</g>
	</g>
	<g>
		<g>
			<g>
				<path class="st1" d="M929.46,1005.86c-1.3,0.24-3.57-6.2-3.81-14.49c-0.27-8.29,1.6-14.86,2.92-14.69
					c1.37,0.16,1.71,6.66,1.97,14.54C930.76,999.11,930.81,1005.62,929.46,1005.86z"/>
			</g>
		</g>
	</g>
	<g>
		<g>
			<g>
				<path class="st1" d="M945.05,1005.86c-0.64,0.17-1.69-1.27-2.66-3.86c-0.98-2.58-1.83-6.31-2.07-10.51
					c-0.24-4.19,0.18-8,0.85-10.67c0.67-2.68,1.54-4.24,2.2-4.14c1.37,0.23,1.35,6.71,1.83,14.53
					C945.62,999.03,946.38,1005.48,945.05,1005.86z"/>
			</g>
		</g>
	</g>
	<g>
		<g>
			<g>
				<path class="st1" d="M960.67,1004.78c-1.33,0.1-2.89-6.46-2.73-14.67c0.15-8.2,1.95-14.7,3.28-14.55
					c1.36,0.15,1.75,6.69,1.61,14.64C962.67,998.17,962.03,1004.69,960.67,1004.78z"/>
			</g>
		</g>
	</g>
	<g>
		<g>
			<g>
				
					<ellipse transform="matrix(0.9989 -0.0469 0.0469 0.9989 -45.4578 46.8955)" class="st1" cx="976.91" cy="992.44" rx="2.45" ry="15.72"/>
			</g>
		</g>
	</g>
	<g>
		<g>
			<g>
				<ellipse class="st1" cx="991.98" cy="994.69" rx="2.45" ry="15.71"/>
			</g>
		</g>
	</g>
	<g>
		<g>
			<g>
				<ellipse class="st1" cx="1008.82" cy="993.01" rx="2.45" ry="15.15"/>
			</g>
		</g>
	</g>
	<g>
		<g>
			<g>
				
					<ellipse transform="matrix(0.9984 -0.0568 0.0568 0.9984 -54.9165 59.7336)" class="st1" cx="1023.8" cy="996.35" rx="2.45" ry="15.19"/>
			</g>
		</g>
	</g>
	<g>
		<g>
			<g>
				
					<ellipse transform="matrix(0.9986 -0.0522 0.0522 0.9986 -50.4294 55.6177)" class="st1" cx="1040.51" cy="994.11" rx="2.45" ry="14.07"/>
			</g>
		</g>
	</g>
	<g>
		<g>
			<g>
				<path class="st1" d="M1061.47,1007.06c-0.64,0.17-1.69-1.28-2.65-3.88c-0.97-2.59-1.8-6.35-2-10.56
					c-0.2-4.21,0.28-8.03,0.99-10.7c0.72-2.68,1.62-4.22,2.27-4.11c1.36,0.26,1.22,6.75,1.62,14.59
					C1062.05,1000.22,1062.81,1006.67,1061.47,1007.06z"/>
			</g>
		</g>
	</g>
	<g>
		<g>
			<g>
				<path class="st1" d="M1076.29,1001.41c-1.35,0.09-2.82-5.37-3.29-12.2s0.25-12.44,1.59-12.53s2.82,5.37,3.29,12.2
					C1078.35,995.71,1077.64,1001.32,1076.29,1001.41z"/>
			</g>
		</g>
	</g>
	<g>
		<g>
			<g>
				<path class="st1" d="M1097.05,1005.99c-1.33,0.23-3.69-6.9-5.27-15.94s-1.78-16.55-0.45-16.78c1.33-0.23,3.69,6.9,5.27,15.94
					S1098.38,1005.75,1097.05,1005.99z"/>
			</g>
		</g>
	</g>
	<g>
		<g>
			<g>
				
					<ellipse transform="matrix(0.9965 -0.084 0.084 0.9965 -79.2717 97.1005)" class="st1" cx="1114.52" cy="990.79" rx="2.45" ry="16.36"/>
			</g>
		</g>
	</g>
	<g>
		<g>
			<g>
				<path class="st1" d="M1132.7,1003.72c-1.35,0.1-2.89-5.87-3.45-13.33c-0.56-7.47,0.08-13.6,1.43-13.7
					c1.35-0.1,2.89,5.87,3.45,13.33C1134.69,997.48,1134.05,1003.62,1132.7,1003.72z"/>
			</g>
		</g>
	</g>
	<g>
		<g>
			<g>
				<path class="st1" d="M1147.94,1003.68c-1.27,0.37-4.29-6.39-5.23-15.34c-0.97-8.95,0.55-16.19,1.87-16.1
					c1.38,0.08,2.07,7.08,3,15.58C1148.46,996.32,1149.27,1003.31,1147.94,1003.68z"/>
			</g>
		</g>
	</g>
	<g>
		<g>
			<g>
				<path class="st1" d="M1163.31,1002.6c-1.32,0.22-3.5-6.46-4.02-14.99c-0.54-8.53,0.81-15.42,2.15-15.37
					c1.37,0.05,2.22,6.81,2.74,15.07C1164.67,995.58,1164.66,1002.39,1163.31,1002.6z"/>
			</g>
		</g>
	</g>
	<g>
		<g>
			<g>
				
					<ellipse transform="matrix(0.9914 -0.1311 0.1311 0.9914 -119.1818 163.3418)" class="st1" cx="1180.89" cy="986.79" rx="2.45" ry="14.76"/>
			</g>
		</g>
	</g>
	<g>
		<g>
			<g>
				<path class="st1" d="M1200.75,1000.29c-0.61,0.25-1.92-1.25-3.27-4.07c-1.35-2.81-2.66-6.96-3.23-11.69
					c-0.56-4.73-0.26-9.07,0.39-12.12c0.65-3.06,1.57-4.82,2.22-4.73c1.38,0.23,1.17,7.53,2.26,16.27
					C1200.11,992.7,1202.04,999.74,1200.75,1000.29z"/>
			</g>
		</g>
	</g>
	<g>
		<g>
			<g>
				<path class="st1" d="M1212.5,998.1c-1.33,0.12-3.05-6.64-3.16-15.13c-0.13-8.49,1.38-15.3,2.72-15.21
					c1.36,0.08,2.05,6.86,2.18,15.14C1214.34,991.19,1213.86,997.98,1212.5,998.1z"/>
			</g>
		</g>
	</g>
	<g>
		<g>
			<g>
				<path class="st1" d="M1187.39,1061.3c0.05,0.16-0.87,0.57-2.67,1.21c-0.9,0.31-2.01,0.71-3.34,1.1
					c-1.34,0.37-2.89,0.8-4.63,1.28c-6.99,1.83-17.29,3.81-30.14,5.13c-12.85,1.34-28.23,1.9-45.23,2.05
					c-16.99,0.15-35.66,0.23-55.26,0.26c-39.2,0.04-74.69-0.19-100.38-0.61c-6.4-0.11-12.27-0.15-17.44-0.73
					c-2.58-0.29-4.98-0.7-7.16-1.21c-2.18-0.51-4.13-1.18-5.84-1.87c-3.42-1.42-5.8-3.12-7.2-4.44c-0.75-0.61-1.19-1.22-1.51-1.59
					c-0.31-0.39-0.44-0.61-0.38-0.67c0.14-0.14,0.94,0.47,2.49,1.48c1.54,1.03,3.94,2.36,7.27,3.44c3.32,1.08,7.56,1.86,12.57,2.14
					c5.01,0.3,10.77,0.11,17.21-0.01c25.69-0.47,61.18-0.78,100.38-0.83c19.6-0.02,38.28,0.03,55.25,0.13
					c16.96,0.1,32.2-0.1,44.95-0.98c12.75-0.87,22.99-2.31,30.04-3.55c3.52-0.64,6.26-1.14,8.12-1.47
					C1186.34,1061.23,1187.34,1061.14,1187.39,1061.3z"/>
			</g>
		</g>
	</g>
	<g>
		<g>
			<g>
				<path class="st1" d="M1226.68,1614.55c-0.02,0.05-0.15,0-0.35,0.02c-0.1,0-0.19,0.07-0.26,0.15c-0.06,0.11-0.09,0.27-0.09,0.47
					c0.02,0.37,0.27,0.97,0.7,1.01c0.19,0.02,0.52-0.08,0.78-0.27c0.26-0.18,0.48-0.46,0.63-0.83c0.33-0.74,0.37-1.68,0.36-2.82
					c0.02-1.13,0.03-2.37,0.05-3.71c0.06-2.68,0.12-5.78,0.19-9.26c0.33-13.94,0.96-34.1,1.83-59c1.75-49.81,4.48-118.62,7.78-194.6
					c0.83-19,1.65-37.51,1.57-55.37c-0.09-17.85-0.93-35.07-3.46-51.2c-2.5-16.12-6.74-31.14-12.87-44.22
					c-3.06-6.54-6.53-12.61-10.38-18.09c-3.85-5.46-8.09-10.31-12.45-14.63c-4.36-4.32-8.98-7.94-13.45-11.21
					c-1.15-0.76-2.29-1.52-3.41-2.26c-0.56-0.37-1.12-0.74-1.67-1.1c-0.57-0.33-1.14-0.66-1.7-0.99c-1.13-0.66-2.24-1.3-3.33-1.94
					c-1.11-0.6-2.23-1.14-3.32-1.7c-8.74-4.4-16.86-6.92-23.6-8.33c-0.84-0.19-1.66-0.37-2.46-0.54c-0.81-0.12-1.59-0.24-2.34-0.35
					c-1.51-0.21-2.93-0.47-4.25-0.62c-1.33-0.11-2.55-0.21-3.67-0.3c-1.12-0.08-2.14-0.23-3.05-0.21c-3.65-0.06-5.58-0.18-5.59-0.33
					s1.91-0.36,5.6-0.6c0.92-0.1,1.95-0.02,3.09-0.01c1.14,0.03,2.39,0.06,3.74,0.09c1.35,0.08,2.79,0.26,4.35,0.41
					c0.78,0.08,1.58,0.16,2.4,0.25c0.82,0.15,1.66,0.29,2.52,0.45c6.93,1.17,15.32,3.49,24.39,7.78c1.13,0.54,2.29,1.07,3.45,1.66
					c1.13,0.63,2.29,1.26,3.46,1.91c0.59,0.32,1.18,0.65,1.77,0.98c0.58,0.36,1.16,0.73,1.74,1.09c1.17,0.74,2.35,1.49,3.55,2.25
					c4.66,3.26,9.47,6.9,14.05,11.27c4.57,4.37,9.02,9.32,13.09,14.92c4.05,5.6,7.71,11.81,10.93,18.51
					c6.47,13.4,10.95,28.78,13.61,45.19c2.69,16.43,3.63,33.85,3.78,51.85c0.15,18.01-0.66,36.6-1.48,55.59
					c-3.3,75.98-6.55,144.77-9.13,194.54c-1.29,24.89-2.42,45.03-3.3,58.94c-0.23,3.48-0.44,6.57-0.61,9.24
					c-0.1,1.34-0.19,2.57-0.27,3.7c-0.07,1.1-0.18,2.27-0.68,3.19c-0.24,0.46-0.6,0.87-1.03,1.11c-0.43,0.23-0.86,0.36-1.36,0.26
					c-0.49-0.12-0.77-0.5-0.9-0.81c-0.13-0.32-0.16-0.63-0.14-0.9c0.03-0.27,0.13-0.52,0.29-0.69c0.18-0.16,0.41-0.21,0.54-0.16
					C1226.62,1614.41,1226.69,1614.53,1226.68,1614.55z"/>
			</g>
		</g>
	</g>
	<g>
		<g>
			<g>
				<path class="st1" d="M943.63,1692.56c0,0.17-0.75,0.3-2.18,0.41c-0.72,0.05-1.61,0.09-2.66,0.13c-1.05-0.02-2.26-0.09-3.63-0.16
					c-1.37-0.03-2.88-0.27-4.53-0.49c-1.66-0.18-3.43-0.58-5.34-0.99c-0.48-0.1-0.96-0.21-1.46-0.31c-0.49-0.14-0.98-0.28-1.48-0.42
					c-1-0.29-2.04-0.59-3.1-0.9c-1.05-0.35-2.12-0.76-3.22-1.15c-0.55-0.2-1.11-0.4-1.67-0.61c-0.55-0.24-1.11-0.48-1.67-0.73
					c-4.55-1.9-9.32-4.53-14.07-7.89c-4.75-3.36-9.47-7.49-13.76-12.48c-4.28-4.97-8.14-10.84-11.11-17.31
					c-3.02-6.46-5.31-13.44-7.33-20.57c-4.01-14.26-7-28.05-9.17-40.69c-2.14-12.64-3.5-24.11-4.25-33.77
					c-0.75-9.66-1.01-17.49-0.97-22.91c0.03-5.42,0.28-8.41,0.6-8.42c0.75-0.03,1.44,11.9,3.81,30.97
					c1.18,9.54,2.89,20.85,5.24,33.32c2.39,12.46,5.49,26.08,9.44,40.16c1.99,7.02,4.17,13.75,6.98,19.9
					c2.77,6.17,6.27,11.64,10.21,16.41c3.94,4.76,8.3,8.78,12.71,12.11c4.41,3.33,8.85,6.01,13.11,8.02
					c0.53,0.26,1.05,0.52,1.57,0.78c0.53,0.22,1.05,0.44,1.57,0.66c1.04,0.43,2.04,0.88,3.03,1.27c1,0.35,1.98,0.7,2.93,1.03
					c0.47,0.17,0.94,0.33,1.4,0.5c0.47,0.13,0.93,0.26,1.38,0.39c1.81,0.52,3.49,1.04,5.07,1.34c1.58,0.35,3.02,0.72,4.34,0.9
					c1.32,0.23,2.49,0.43,3.5,0.6c1.02,0.12,1.89,0.23,2.59,0.34C942.89,1692.19,943.63,1692.39,943.63,1692.56z"/>
			</g>
		</g>
	</g>
	<g>
		<g>
			<g>
				<path class="st1" d="M1236.45,1666.47c-0.12,0.13-1.13-0.52-2.92-1.87c-0.9-0.67-1.99-1.52-3.27-2.53
					c-1.26-1.03-2.85-2.06-4.56-3.32c-6.86-4.96-17.16-11.68-30.86-18.06c-0.85-0.41-1.71-0.82-2.59-1.23
					c-0.89-0.38-1.79-0.76-2.7-1.14c-1.82-0.77-3.68-1.55-5.58-2.36c-3.87-1.42-7.84-3.04-12.08-4.36
					c-4.19-1.47-8.63-2.68-13.17-3.99c-2.29-0.58-4.62-1.16-6.98-1.75c-2.35-0.62-4.78-1.05-7.22-1.6
					c-9.78-2.03-20.16-3.62-30.98-4.63c-10.82-1.02-22.1-1.43-33.65-1.31c-23.11,0.24-45.09,2.58-64.97,5.4
					c-19.88,2.87-37.7,6.23-52.66,9.08c-7.47,1.42-14.17,2.85-19.95,4.44c-5.79,1.57-10.64,3.33-14.5,5
					c-7.72,3.38-11.48,6.3-11.74,5.94c-0.1-0.13,0.73-0.99,2.49-2.42c1.79-1.39,4.56-3.31,8.39-5.32c3.83-2,8.71-4.09,14.54-5.95
					c5.82-1.89,12.58-3.58,20.03-5.24c14.9-3.31,32.71-7.06,52.7-10.2c19.98-3.1,42.18-5.61,65.62-5.86
					c11.72-0.12,23.16,0.33,34.18,1.44c11.01,1.1,21.57,2.82,31.5,5.02c2.47,0.59,4.94,1.07,7.33,1.73c2.39,0.64,4.76,1.27,7.08,1.9
					c4.61,1.42,9.1,2.73,13.34,4.32c4.29,1.44,8.31,3.18,12.21,4.73c1.91,0.87,3.79,1.72,5.62,2.55c0.92,0.42,1.82,0.83,2.72,1.24
					c0.88,0.45,1.74,0.89,2.6,1.33c13.76,6.93,23.94,14.24,30.5,19.75c1.63,1.4,3.14,2.57,4.31,3.73c1.19,1.15,2.19,2.13,2.98,2.93
					C1235.8,1665.44,1236.57,1666.34,1236.45,1666.47z"/>
			</g>
		</g>
	</g>
	<g>
		<g>
			<g>
				<path class="st1" d="M1250.1,1641.09c0.15,0.02,0.07,1.47-0.4,4.18c-0.55,2.69-1.6,6.66-3.82,11.44
					c-2.23,4.75-5.6,10.34-10.61,15.91c-4.94,5.63-11.5,11.22-19.53,16.15c-8.03,4.92-17.49,9.11-27.89,12.64
					c-10.4,3.56-21.7,6.51-33.52,9.66c-11.85,3.12-24.44,6.28-37.85,7.98c-13.44,1.71-27.4,1.57-41.52,1.28
					c-28.24-0.56-55.21-1.27-79.68-3.33c-24.47-2.02-46.43-5.31-64.55-9.5c-2.26-0.53-4.47-1.04-6.63-1.55
					c-2.14-0.56-4.22-1.12-6.25-1.65c-4.04-1.02-7.89-2.18-11.38-3.5c-6.99-2.63-12.69-5.94-16.63-9.55
					c-3.97-3.59-5.97-7.41-6.83-10.03c-0.2-0.67-0.43-1.24-0.51-1.76c-0.09-0.52-0.16-0.96-0.2-1.31c-0.09-0.7-0.1-1.07-0.01-1.08
					s0.25,0.32,0.5,0.97c0.12,0.33,0.27,0.73,0.43,1.21c0.15,0.48,0.46,1,0.72,1.61c1.12,2.4,3.24,5.79,7.16,8.96
					c3.9,3.18,9.45,6.11,16.3,8.41c3.43,1.16,7.16,2.15,11.23,3.06c2.02,0.47,4.1,0.96,6.23,1.46c2.15,0.44,4.35,0.9,6.6,1.37
					c18.05,3.72,39.84,6.63,64.17,8.39c24.33,1.8,51.2,2.38,79.43,2.94c14.1,0.3,27.81,0.46,40.83-1.14
					c13.04-1.58,25.47-4.6,37.3-7.58c11.85-3.03,23.12-5.81,33.37-9.15c10.26-3.3,19.52-7.19,27.4-11.77
					c7.85-4.57,14.33-9.77,19.28-15.03c5.03-5.2,8.5-10.43,10.92-14.91C1248.95,1646.81,1249.61,1640.97,1250.1,1641.09z"/>
			</g>
		</g>
	</g>
	<g>
		<g>
			<g>
				<path class="st1" d="M939.35,1138.33c0,0.17-0.5,0.36-1.45,0.57c-0.48,0.11-1.06,0.22-1.76,0.33c-0.35,0.05-0.72,0.11-1.12,0.17
					c-0.4,0.07-0.82,0.17-1.26,0.26c-0.89,0.18-1.88,0.37-2.96,0.59c-1.07,0.25-2.22,0.57-3.47,0.88c-1.25,0.27-2.54,0.76-3.92,1.18
					c-1.39,0.39-2.8,1-4.3,1.56c-0.37,0.14-0.75,0.29-1.14,0.43c-0.37,0.17-0.75,0.34-1.13,0.52c-0.76,0.35-1.54,0.7-2.34,1.06
					c-0.81,0.34-1.57,0.81-2.38,1.21c-0.8,0.43-1.63,0.83-2.44,1.31c-1.6,0.99-3.31,1.92-4.94,3.1c-0.82,0.57-1.68,1.11-2.5,1.73
					c-0.82,0.63-1.64,1.26-2.48,1.91c-3.27,2.67-6.6,5.61-9.64,9.06c-3.06,3.42-5.95,7.2-8.53,11.32
					c-5.08,8.32-8.5,17.07-10.59,25.3c-1.1,4.11-1.75,8.1-2.34,11.85c-0.48,3.76-0.82,7.29-0.96,10.52
					c-0.3,6.47-0.13,11.75,0.05,15.4c0.17,3.65,0.23,5.71-0.13,5.77c-0.31,0.06-1-1.89-1.76-5.54c-0.77-3.64-1.48-9-1.62-15.68
					c-0.09-3.34,0.07-7.01,0.39-10.94c0.43-3.92,0.96-8.11,1.98-12.44c1.93-8.67,5.41-17.99,10.8-26.82
					c2.75-4.39,5.86-8.4,9.15-11.98c3.28-3.61,6.88-6.67,10.42-9.39c0.91-0.65,1.8-1.3,2.69-1.94c0.89-0.63,1.82-1.17,2.71-1.74
					c1.76-1.18,3.61-2.09,5.35-3.05c0.88-0.47,1.78-0.85,2.64-1.26c0.88-0.39,1.7-0.83,2.57-1.14c0.86-0.33,1.7-0.66,2.53-0.97
					c0.41-0.16,0.82-0.31,1.22-0.46c0.41-0.13,0.82-0.25,1.22-0.38c1.62-0.49,3.13-1.01,4.62-1.3c1.48-0.32,2.86-0.71,4.19-0.86
					c1.32-0.19,2.55-0.39,3.68-0.51c1.14-0.07,2.18-0.13,3.12-0.18c0.47-0.02,0.91-0.05,1.32-0.05c0.42,0.02,0.8,0.04,1.16,0.05
					c0.72,0.04,1.33,0.08,1.82,0.14C938.84,1138.02,939.35,1138.16,939.35,1138.33z"/>
			</g>
		</g>
	</g>
	<g>
		<path class="st1" d="M858.96,1301c0.89,62.2,1.77,124.4,2.66,186.61c0.08,5.92,0.22,12.05,2.96,17.42
			c3.21,6.29,9.56,10.69,15.9,14.48c78.72,47.09,181.34,36.24,274.37,23.63c26.45-3.59,55.21-8.28,72.83-26.69
			c17.31-18.09,18.88-44.25,19.58-68.29c0.87-29.62,1.74-59.24,2.6-88.86c0.84-28.75,0.56-60.51-20.22-82.08
			c-19.01-19.74-47.1-13.22-75.56-8.94c-27.03,4.07-41.09,13.43-97.74,9.79c-52.95-3.4-97.05,7.55-148.81-5.5
			c-10.37-2.61-21.11-5.75-31.67-3.86c-23.71,4.24-16.77,42.31-16.44,65.45"/>
	</g>
	<g>
		<path class="st3" d="M214.53,467.87c0.89,62.2,1.77,124.4,2.66,186.61c0.08,5.92,0.22,12.05,2.96,17.42
			c3.21,6.29,9.56,10.69,15.9,14.48c78.72,47.09,181.34,36.24,274.37,23.63c26.45-3.59,55.21-8.28,72.83-26.69
			c17.3-18.09,18.88-44.25,19.58-68.29c0.87-29.62,1.74-59.24,2.6-88.86c0.84-28.75,0.56-60.51-20.22-82.08
			c-19.01-19.74-47.1-13.22-75.56-8.94c-27.03,4.07-41.09,13.43-97.74,9.79c-52.95-3.4-97.05,7.55-148.81-5.5
			c-10.37-2.61-21.11-5.75-31.67-3.86c-23.71,4.24-16.77,42.31-16.44,65.45"/>
	</g>
</g>
</svg>
